<?xml version="1.0" encoding="UTF-8"?>
<svg width="8px" height="14px" viewBox="0 0 8 14" version="1.1" xmlns="http://www.w3.org/2000/svg" xmlns:xlink="http://www.w3.org/1999/xlink">
    <!-- Generator: Sketch 61 (89581) - https://sketch.com -->
    <title>All_right arrow@2x</title>
    <desc>Created with Sketch.</desc>
    <g id="1" stroke="none" stroke-width="1" fill="none" fill-rule="evenodd">
        <g id="橙-个人中心-还款页" transform="translate(-336.000000, -333.000000)" fill="#DDDDDD" fill-rule="nonzero">
            <g id="全局-右箭头" transform="translate(336.000000, 333.000000)">
                <g id="All_right-arrow" transform="translate(4.000000, 7.000000) scale(-1, 1) translate(-4.000000, -7.000000) ">
                    <path d="M7.19428662,13.9825994 C6.99644886,13.9825994 6.79861111,13.9088179 6.64679609,13.7612549 L0.244286616,7.53727362 C0.0961016414,7.39308194 0.0125789141,7.19682839 0.0125789141,6.99157937 C0.0125789141,6.78633034 0.0961016414,6.59007679 0.244286616,6.44588512 L6.64679609,0.221515447 C6.95290404,-0.0762517756 7.44638573,-0.0736261541 7.74865846,0.228258168 C8.05112058,0.529754084 8.04810606,1.01515225 7.74180871,1.31290394 L1.90071023,6.99157937 L7.74180871,12.6698664 C8.04809028,12.9676181 8.05112058,13.4530162 7.74865846,13.7545122 C7.59629104,13.9065652 7.39539141,13.9825994 7.19428662,13.9825994 Z" id="路径"></path>
                </g>
            </g>
        </g>
    </g>
</svg>