<?xml version="1.0" encoding="UTF-8"?>
<svg width="22px" height="22px" viewBox="0 0 22 22" version="1.1" xmlns="http://www.w3.org/2000/svg" xmlns:xlink="http://www.w3.org/1999/xlink">
    <!-- Generator: Sketch 61 (89581) - https://sketch.com -->
    <title>All_ return@2x</title>
    <desc>Created with Sketch.</desc>
    <g id="1" stroke="none" stroke-width="1" fill="none" fill-rule="evenodd">
        <g id="橙-主页-基本信息不变" transform="translate(-12.000000, -32.000000)" fill="#FFFFFF" fill-rule="nonzero">
            <g id="top">
                <g id="All_-return" transform="translate(12.000000, 32.000000)">
                    <g>
                        <rect id="矩形" opacity="0" x="0" y="0" width="22" height="22"></rect>
                        <path d="M9.99285827,19.9776278 C9.74556108,19.9776278 9.49826389,19.8827659 9.30849511,19.693042 L1.30535827,11.6907804 C1.12012705,11.5053911 1.01572364,11.2530651 1.01572364,10.9891735 C1.01572364,10.7252819 1.12012705,10.4729559 1.30535827,10.2875666 L9.30849511,2.28480558 C9.69113005,1.901962 10.3079822,1.9053378 10.6858231,2.29347479 C11.0639007,2.68111239 11.0601326,3.30519576 10.6772609,3.68801935 L3.37588778,10.9891735 L10.6772609,18.2898282 C11.0601128,18.6726518 11.0639007,19.2967352 10.6858231,19.6843728 C10.4953638,19.8798695 10.2442393,19.9776278 9.99285827,19.9776278 Z" id="路径"></path>
                    </g>
                </g>
            </g>
        </g>
    </g>
</svg>