<?xml version="1.0" encoding="UTF-8"?>
<svg width="18px" height="18px" viewBox="0 0 18 18" version="1.1" xmlns="http://www.w3.org/2000/svg" xmlns:xlink="http://www.w3.org/1999/xlink">
    <!-- Generator: Sketch 61 (89581) - https://sketch.com -->
    <title>All_current settings@2x</title>
    <desc>Created with Sketch.</desc>
    <g id="1" stroke="none" stroke-width="1" fill="none" fill-rule="evenodd">
        <g id="橙-个人中心-设置-语言" transform="translate(-326.000000, -82.000000)" fill="#47D2D6" fill-rule="nonzero">
            <g id="First-Name" transform="translate(0.000000, 64.000000)">
                <g id="全局当前选项" transform="translate(326.000000, 18.000000)">
                    <g id="All_current-settings">
                        <path d="M9,18 C13.9705627,18 18,13.970563 18,9 C18,4.029437 13.9705627,0 9,0 C4.0294373,0 0,4.029437 0,9 C0,13.970563 4.0294373,18 9,18 Z M7.5776474,10.513425 L12.5541398,5.53693199 C12.9500865,5.14098599 13.5905009,5.139443 13.9907347,5.53967699 C14.3881974,5.93714 14.3882012,6.58155101 13.9934796,6.97627201 L8.35626169,12.61349 C8.1697025,12.800049 7.92887061,12.899049 7.68446111,12.909719 C7.3903462,12.943849 7.0845281,12.848732 6.8630351,12.627239 L4.004738,9.768942 C3.61552359,9.379728 3.6138629,8.750348 4.0071098,8.357101 C4.39763411,7.966576 5.0349928,7.97077 5.4189515,8.354729 L7.5776474,10.513425 Z" id="形状"></path>
                    </g>
                </g>
            </g>
        </g>
    </g>
</svg>