<?xml version="1.0" encoding="UTF-8"?>
<svg width="82px" height="77px" viewBox="0 0 82 77" version="1.1" xmlns="http://www.w3.org/2000/svg" xmlns:xlink="http://www.w3.org/1999/xlink">
    <!-- Generator: Sketch 61 (89581) - https://sketch.com -->
    <title>Failure@2x</title>
    <desc>Created with Sketch.</desc>
    <g id="1" stroke="none" stroke-width="1" fill="none" fill-rule="evenodd">
        <g id="橙-主页-未通过审核" transform="translate(-147.000000, -164.000000)" fill="#FF7C61" fill-rule="nonzero">
            <g id="失败" transform="translate(147.000000, 164.000000)">
                <g id="Failure">
                    <path d="M34,9 C52.7776953,9 68,24.2223047 68,43 C68,61.7776953 52.7776953,77 34,77 C15.2223047,77 0,61.7776953 0,43 C0,24.2223047 15.2223047,9 34,9 Z M33.4014551,55.5999028 C31.6257723,55.5999028 30.0249347,56.6231969 29.3454103,58.1926249 C28.6658859,59.7620528 29.0414955,61.5685424 30.2970928,62.7697305 C31.5526902,63.9709186 33.4410069,64.3302518 35.0815238,63.6801734 C36.7220408,63.0300951 37.7916863,61.4986271 37.7916863,59.7998906 C37.8632835,58.6663708 37.4237835,57.557826 36.58443,56.7548445 C35.7450766,55.951863 34.5863189,55.5314081 33.4014551,55.5999028 Z M33.4014551,22 C32.1690939,22.0290736 31.0028096,22.539183 30.1735817,23.411807 C29.3443539,24.2844311 28.9243747,25.4435998 29.0112239,26.6199866 L30.7673164,49.299921 C31.0004405,50.5164053 32.1086756,51.399915 33.4014551,51.399915 C34.6942346,51.399915 35.8024697,50.5164053 36.0355938,49.299921 L37.7916863,26.1999879 C37.7866022,23.8824162 35.8240038,22.0048637 33.4014551,22 Z M81.0838326,22.1747251 C81.2566254,23.2656955 80.5122953,24.290178 79.4213249,24.4629707 L69.5444415,26.0273153 C68.453471,26.2001081 67.4289886,25.455778 67.2561958,24.3648076 C67.0834031,23.2738372 67.8277332,22.2493547 68.9187036,22.076562 L78.795587,20.5122173 C79.8865574,20.3394246 80.9110399,21.0837547 81.0838326,22.1747251 Z M74.9040785,10.2547313 C75.5376336,11.1595416 75.3177377,12.4066332 74.4129273,13.0401882 L66.2214069,18.7759526 C65.3165965,19.4095076 64.069505,19.1896118 63.4359499,18.2848014 C62.8023949,17.379991 63.0222908,16.1328995 63.9271011,15.4993444 L72.1186216,9.76358007 C73.0234319,9.13002503 74.2705235,9.34992092 74.9040785,10.2547313 Z M64.4489913,0.651136309 C65.4933823,1.01074896 66.0485048,2.14891879 65.6888922,3.19330977 L62.4332106,12.6484955 C62.073598,13.6928865 60.9354281,14.248009 59.8910372,13.8883964 C58.8466462,13.5287837 58.2915237,12.3906139 58.6511363,11.3462229 L61.9068179,1.89103715 C62.2664305,0.846646171 63.4046003,0.291523655 64.4489913,0.651136309 Z" id="形状"></path>
                </g>
            </g>
        </g>
    </g>
</svg>