<?xml version="1.0" encoding="UTF-8"?>
<svg width="28px" height="28px" viewBox="0 0 28 28" version="1.1" xmlns="http://www.w3.org/2000/svg" xmlns:xlink="http://www.w3.org/1999/xlink">
    <!-- Generator: Sketch 61 (89581) - https://sketch.com -->
    <title>Id card_camera@2x</title>
    <desc>Created with Sketch.</desc>
    <g id="1" stroke="none" stroke-width="1" fill="none" fill-rule="evenodd">
        <g id="橙-主页-待填信息-身份认证" transform="translate(-310.000000, -108.000000)">
            <g id="part1" transform="translate(0.000000, 64.000000)">
                <g id="PAN-Card">
                    <g id="身份证-拍照" transform="translate(310.000000, 44.000000)">
                        <g id="Id-card_camera">
                            <circle id="椭圆形" fill="#FFFFFF" cx="14" cy="14" r="14"></circle>
                            <path d="M16.1187053,7.00488873 C16.3848103,7.00488873 16.6874733,7.12162169 16.9535783,7.31617661 C17.2182263,7.50922348 17.4083013,7.74268939 17.5223463,8.01506629 L17.5223463,8.01506629 L17.9405114,9.14199337 L19.7637747,9.14199337 C20.3325265,9.14199337 20.8252644,9.33505682 21.2434295,9.76307765 C21.6615784,10.1910985 21.8501963,10.6954498 21.8487476,11.2791146 L21.8487476,11.2791146 L21.8487476,18.7784612 C21.8487476,19.3621259 21.6601213,19.8664773 21.24194,20.2944981 C20.8252483,20.7210109 20.3310693,20.9155658 19.7623013,20.9155658 L19.7623013,20.9155658 L8.22325684,20.9155658 C7.65450504,20.9155658 7.16176706,20.7225189 6.74360197,20.2944981 C6.32689402,19.8664773 6.13681898,19.3606345 6.13681898,18.7784612 L6.13681898,18.7784612 L6.13681898,11.2791146 C6.13681898,10.6954498 6.32543688,10.1910985 6.74361816,9.76307765 C7.16032612,9.3365483 7.65450504,9.14199337 8.22327303,9.14199337 L8.22327303,9.14199337 L10.0830942,9.14199337 L10.5392743,8.01506629 C10.6518622,7.74419744 10.8419372,7.51073153 11.1080422,7.31617661 C11.3741311,7.12162169 11.638779,7.00488873 11.9428991,7.00488873 L11.9428991,7.00488873 Z M13.9927953,11.3554285 C12.093502,11.3554285 10.5378171,12.9492874 10.5378171,14.8918537 C10.5378171,16.8358949 12.0949591,18.4282623 13.9927953,18.4282623 C15.8906152,18.4282623 17.4477734,16.8359115 17.4477734,14.8918537 C17.4477734,12.9477959 15.8920886,11.3554285 13.9927953,11.3554285 Z M13.9927953,12.561669 C15.2838484,12.561669 16.3087803,13.6107741 16.3087803,14.9322562 C16.3087803,16.2537382 15.2838484,17.3028267 13.9927953,17.3028267 C12.7017421,17.3028267 11.676794,16.2537382 11.676794,14.9322562 C11.676794,13.6107741 12.7017421,12.561669 13.9927953,12.561669 Z" id="形状结合" fill="#FDA90D" fill-rule="nonzero"></path>
                        </g>
                    </g>
                </g>
            </g>
        </g>
    </g>
</svg>