<?xml version="1.0" encoding="UTF-8"?>
<svg width="28px" height="28px" viewBox="0 0 28 28" version="1.1" xmlns="http://www.w3.org/2000/svg" xmlns:xlink="http://www.w3.org/1999/xlink">
    <!-- Generator: Sketch 61 (89581) - https://sketch.com -->
    <title>Id card_error@2x</title>
    <desc>Created with Sketch.</desc>
    <g id="1" stroke="none" stroke-width="1" fill="none" fill-rule="evenodd">
        <g id="橙-主页-待填信息-身份认证状态" transform="translate(-310.000000, -218.000000)" fill-rule="nonzero">
            <g id="part1" transform="translate(0.000000, 64.000000)">
                <g id="Your-Selfie" transform="translate(0.000000, 110.000000)">
                    <g id="右边" transform="translate(244.000000, 18.000000)">
                        <g id="身份证-错误" transform="translate(66.000000, 26.000000)">
                            <g id="Id-card_error">
                                <circle id="形状" fill="#FF7C61" cx="14" cy="14" r="14"></circle>
                                <path d="M13.9634581,19.3999583 C14.4900642,19.3706035 15.0050676,19.5507984 15.3781136,19.8949334 C15.7511596,20.2390683 15.9464929,20.7141589 15.914672,21.1999531 C15.914672,21.927983 15.439274,22.5843265 14.7101553,22.8629315 C13.9810367,23.1415365 13.1417848,22.9875366 12.5837415,22.4727417 C12.0256983,21.9579467 11.8587607,21.1837369 12.1607715,20.5111249 C12.4627824,19.838513 13.1742657,19.3999583 13.9634581,19.3999583 Z M13.9634581,5 C15.0401464,5.00208446 15.9124124,5.80674982 15.914672,6.7999948 L15.914672,6.7999948 L15.1341864,16.6999661 C15.0305757,17.2213165 14.5380267,17.5999636 13.9634581,17.5999636 C13.3888894,17.5999636 12.8963405,17.2213165 12.7927298,16.6999661 L12.7927298,16.6999661 L12.0122442,6.97999427 C11.9736446,6.4758285 12.160302,5.97904191 12.5288477,5.60506016 C12.8973934,5.23107841 13.415742,5.0124601 13.9634581,5 Z" id="形状结合" fill="#FFFFFF"></path>
                            </g>
                        </g>
                    </g>
                </g>
            </g>
        </g>
    </g>
</svg>