<?xml version="1.0" encoding="UTF-8"?>
<svg width="24px" height="24px" viewBox="0 0 24 24" version="1.1" xmlns="http://www.w3.org/2000/svg" xmlns:xlink="http://www.w3.org/1999/xlink">
    <!-- Generator: Sketch 61 (89581) - https://sketch.com -->
    <title>Login_Tel@2x</title>
    <desc>Created with Sketch.</desc>
    <g id="1" stroke="none" stroke-width="1" fill="none" fill-rule="evenodd">
        <g id="橙-注册/登录" transform="translate(-32.000000, -343.000000)" fill-rule="nonzero">
            <g id="信息填写" transform="translate(32.000000, 309.000000)">
                <g id="手机填写" transform="translate(0.000000, 34.000000)">
                    <g id="登录页手机">
                        <g id="Login_Tel">
                            <rect id="矩形" fill="#000000" opacity="0" x="0" y="0" width="24" height="24"></rect>
                            <path d="M16.44,3.24 C16.836,3.24 17.16,3.564 17.16,3.96 L17.16,20.04 C17.16,20.436 16.836,20.76 16.44,20.76 L7.56,20.76 C7.164,20.76 6.84,20.436 6.84,20.04 L6.84,3.96 C6.84,3.564 7.164,3.24 7.56,3.24 L16.44,3.24 L16.44,3.24 Z M16.44,1.8 L7.56,1.8 C6.372,1.8 5.4,2.772 5.4,3.96 L5.4,20.04 C5.4,21.228 6.372,22.2 7.56,22.2 L16.44,22.2 C17.628,22.2 18.6,21.228 18.6,20.04 L18.6,3.96 C18.6,2.772 17.628,1.8 16.44,1.8 Z M17.22,17.724 L6.78,17.724 C6.024,17.724 5.4,18.336 5.4,19.104 L5.4,20.148 C5.4,20.904 6.012,21.528 6.78,21.528 L17.22,21.528 C17.976,21.528 18.6,20.916 18.6,20.148 L18.6,19.104 C18.6,18.336 17.976,17.724 17.22,17.724 Z M11.976,20.544 C11.376,20.544 10.884,20.052 10.884,19.452 C10.884,18.852 11.376,18.36 11.976,18.36 C12.576,18.36 13.068,18.852 13.068,19.452 C13.068,20.052 12.576,20.544 11.976,20.544 Z" id="形状" fill="#47D2D6"></path>
                        </g>
                    </g>
                </g>
            </g>
        </g>
    </g>
</svg>