<?xml version="1.0" encoding="UTF-8"?>
<svg width="120px" height="120px" viewBox="0 0 120 120" version="1.1" xmlns="http://www.w3.org/2000/svg" xmlns:xlink="http://www.w3.org/1999/xlink">
    <!-- Generator: Sketch 61 (89581) - https://sketch.com -->
    <title>No loan history default page@2x</title>
    <desc>Created with Sketch.</desc>
    <g id="1" stroke="none" stroke-width="1" fill="none" fill-rule="evenodd">
        <g id="橙-个人中心-无借款记录" transform="translate(-120.000000, -167.000000)" fill-rule="nonzero">
            <g id="无借款记录缺省页" transform="translate(120.000000, 167.000000)">
                <g id="No-loan-history-default-page">
                    <g id="银行卡缺省页">
                        <g id="编组">
                            <rect id="矩形" fill="#000000" opacity="0" x="0" y="0" width="120" height="120"></rect>
                            <path d="M14.1020444,90.6261333 C14.1020444,63.1601778 36.3669333,40.8952889 63.8328889,40.8952889 C91.2988444,40.8952889 113.563733,63.1601778 113.563733,90.6261333" id="路径" fill="#F9F0D4"></path>
                            <path d="M78.7875556,49.3873778 L101.911467,49.3873778 C103.295929,49.3873778 104.418697,50.5088723 104.420267,51.8933333 C104.420267,53.2789053 103.297039,54.4021333 101.911467,54.4021333 L78.7875556,54.4021333 C78.7453095,54.4021333 78.7047938,54.3853512 78.6749213,54.3554787 C78.6450488,54.3256062 78.6282667,54.2850905 78.6282667,54.2428444 L78.6282667,49.5495111 C78.6282667,49.5072651 78.6450488,49.4667493 78.6749213,49.4368769 C78.7047938,49.4070044 78.7453095,49.3902222 78.7875556,49.3902222 L78.7875556,49.3873778 Z M81.5779556,59.4311111 L115.284622,59.4311111 C116.670194,59.4311111 117.793422,60.5543391 117.793422,61.9399111 C117.793422,63.3254831 116.670194,64.4487111 115.284622,64.4487111 L81.5779556,64.4487111 C81.5357095,64.4487111 81.4951938,64.4319289 81.4653213,64.4020565 C81.4354488,64.372184 81.4186667,64.3316683 81.4186667,64.2894222 L81.4186667,59.5960889 C81.4186667,59.5538428 81.4354488,59.5133271 81.4653213,59.4834546 C81.4951938,59.4535822 81.5357095,59.4368 81.5779556,59.4368 L81.5779556,59.4311111 Z M8.60657778,85.6071111 L37.6711111,85.6071111 C37.7590839,85.6071111 37.8304,85.6784272 37.8304,85.7664 L37.8304,90.4597333 C37.8304,90.5019794 37.8136178,90.5424951 37.7837454,90.5723676 C37.7538729,90.60224 37.7133572,90.6190222 37.6711111,90.6190222 L8.60657778,90.6190222 C7.22377811,90.6190222 6.10169728,89.5001274 6.09777778,88.1173333 C6.09777778,86.7317614 7.2210058,85.6085333 8.60657778,85.6085333 L8.60657778,85.6071111 Z" id="形状" fill="#F9F0D4"></path>
                            <polygon id="路径" fill="#F9F0D4" points="13.2814222 75.5704889 26.0899556 75.5704889 26.0899556 80.5880889 13.2814222 80.5880889"></polygon>
                            <path d="M14.1063111,65.5352889 L24.3676444,65.5352889 C24.4098905,65.5352889 24.4504062,65.5520711 24.4802787,65.5819435 C24.5101512,65.611816 24.5269333,65.6523317 24.5269333,65.6945778 L24.5269333,70.3879111 C24.5269333,70.4301572 24.5101512,70.4706729 24.4802787,70.5005454 C24.4504062,70.5304178 24.4098905,70.5472 24.3676444,70.5472 L14.1063111,70.5472 C12.7207391,70.5472 11.5975111,69.423972 11.5975111,68.0384 C11.5975111,66.652828 12.7207391,65.5296 14.1063111,65.5296 L14.1063111,65.5352889 Z" id="路径" fill="#F9F0D4"></path>
                            <polygon id="路径" fill="#FFFFFF" points="89.0076444 54.4064 106.481067 54.4064 106.481067 59.424 89.0076444 59.424"></polygon>
                            <path d="M25.5267556,90.6261333 C25.5267556,70.1390222 42.1340444,53.5317333 62.6211556,53.5317333 C83.1082667,53.5317333 99.7141333,70.1390222 99.7141333,90.6261333" id="路径" fill="#FFFBEE"></path>
                            <path d="M21.9456,67.1594667 L25.1399111,65.8908444 C25.1914769,65.8681074 25.2247532,65.8170672 25.2247532,65.7607111 C25.2247532,65.704355 25.1914769,65.6533148 25.1399111,65.6305778 L21.9456,64.3619556 C21.5539574,64.2074553 21.2429005,63.8989692 21.0851556,63.5086222 L19.8165333,60.3128889 C19.7941919,60.260444 19.7426942,60.2264062 19.6856889,60.2264062 C19.6286835,60.2264062 19.5771859,60.260444 19.5548444,60.3128889 L18.2862222,63.5086222 C18.1305351,63.8978547 17.8221214,64.2062685 17.4328889,64.3619556 L14.2385778,65.6305778 C14.187012,65.6533148 14.1537357,65.704355 14.1537357,65.7607111 C14.1537357,65.8170672 14.187012,65.8681074 14.2385778,65.8908444 L17.4328889,67.1594667 C17.8221214,67.3151537 18.1305351,67.6235675 18.2862222,68.0128 L19.5548444,71.2071111 C19.5771859,71.259556 19.6286835,71.2935938 19.6856889,71.2935938 C19.7426942,71.2935938 19.7941919,71.259556 19.8165333,71.2071111 L21.0851556,68.0128 C21.2429005,67.622453 21.5539574,67.3139669 21.9456,67.1594667 L21.9456,67.1594667 Z" id="路径" fill="#F5C244"></path>
                            <path d="M20.9742222,66.5578667 L22.7975111,65.8311111 C22.8234965,65.8168878 22.8396546,65.7896233 22.8396546,65.76 C22.8396546,65.7303767 22.8234965,65.7031122 22.7975111,65.6888889 L20.9742222,64.9649778 C20.7501049,64.8759264 20.572607,64.6984285 20.4835556,64.4743111 L19.7596444,62.6524444 C19.7461042,62.6255991 19.7186001,62.6086671 19.6885333,62.6086671 C19.6584666,62.6086671 19.6309625,62.6255991 19.6174222,62.6524444 L18.8935111,64.4743111 C18.8044597,64.6984285 18.6269618,64.8759264 18.4028444,64.9649778 L16.5738667,65.6888889 C16.5478813,65.7031122 16.5317232,65.7303767 16.5317232,65.76 C16.5317232,65.7896233 16.5478813,65.8168878 16.5738667,65.8311111 L18.3971556,66.5536 C18.6207099,66.6435054 18.7979168,66.8207123 18.8878222,67.0442667 L19.6088889,68.8718222 C19.6224291,68.8986675 19.6499333,68.9155996 19.68,68.9155996 C19.7100667,68.9155996 19.7375709,68.8986675 19.7511111,68.8718222 L20.4750222,67.0485333 C20.5668856,66.823301 20.7474396,66.6458333 20.9742222,66.5578667 L20.9742222,66.5578667 Z" id="路径" fill="#F5C244"></path>
                            <path d="M77.3038222,29.9402667 L79.3461333,29.1296 C79.3801619,29.1159986 79.402478,29.0830462 79.402478,29.0464 C79.402478,29.0097538 79.3801619,28.9768014 79.3461333,28.9632 L77.3038222,28.1525333 C77.0527704,28.0526036 76.8541243,27.8534429 76.7548444,27.6021333 L75.9441778,25.5612444 C75.9305764,25.5272158 75.897624,25.5048998 75.8609778,25.5048998 C75.8243316,25.5048998 75.7913791,25.5272158 75.7777778,25.5612444 L74.9656889,27.6021333 C74.8664091,27.8534429 74.6677629,28.0526036 74.4167111,28.1525333 L72.3744,28.9632 C72.3403714,28.9768014 72.3180554,29.0097538 72.3180554,29.0464 C72.3180554,29.0830462 72.3403714,29.1159986 72.3744,29.1296 L74.4167111,29.9402667 C74.6677629,30.0401964 74.8664091,30.2393571 74.9656889,30.4906667 L75.7777778,32.5329778 C75.7913791,32.5670064 75.8243316,32.5893224 75.8609778,32.5893224 C75.897624,32.5893224 75.9305764,32.5670064 75.9441778,32.5329778 L76.7548444,30.4906667 C76.8541243,30.2393571 77.0527704,30.0401964 77.3038222,29.9402667 L77.3038222,29.9402667 Z" id="路径" fill="#F5C244"></path>
                            <path d="M43.6837333,35.5562667 L44.8485333,35.0940444 C44.8681134,35.0863402 44.8809864,35.0674412 44.8809864,35.0464 C44.8809864,35.0253588 44.8681134,35.0064598 44.8485333,34.9987556 L43.6837333,34.5365333 C43.5408358,34.4797198 43.427658,34.366542 43.3708444,34.2236444 L42.9072,33.0588444 C42.9001703,33.0389524 42.8813643,33.0256525 42.8602667,33.0256525 C42.8391691,33.0256525 42.820363,33.0389524 42.8133333,33.0588444 L42.3511111,34.2236444 C42.2942976,34.366542 42.1811198,34.4797198 42.0382222,34.5365333 L40.8734222,34.9987556 C40.8538422,35.0064598 40.8409691,35.0253588 40.8409691,35.0464 C40.8409691,35.0674412 40.8538422,35.0863402 40.8734222,35.0940444 L42.0382222,35.5562667 C42.1814962,35.6132603 42.2947678,35.7270468 42.3511111,35.8705778 L42.8147556,37.0353778 C42.8217852,37.0552698 42.8405913,37.0685697 42.8616889,37.0685697 C42.8827865,37.0685697 42.9015926,37.0552698 42.9086222,37.0353778 L43.3722667,35.8705778 C43.4282853,35.7273273 43.5409981,35.6135852 43.6837333,35.5562667 Z" id="路径" fill="#F5C244"></path>
                            <path d="M102.113422,67.4595556 L103.717689,66.8266667 C103.743911,66.8154959 103.76093,66.7897471 103.76093,66.7612444 C103.76093,66.7327418 103.743911,66.7069929 103.717689,66.6958222 L102.113422,66.0600889 C101.919408,65.9813347 101.76551,65.8274363 101.686756,65.6334222 L101.0496,64.0305778 C101.03953,64.0031384 101.013407,63.9848988 100.984178,63.9848988 C100.954949,63.9848988 100.928826,64.0031384 100.918756,64.0305778 L100.283022,65.6334222 C100.204406,65.827528 100.050461,65.9814731 99.8563556,66.0600889 L98.2535111,66.6958222 C98.2260718,66.7058924 98.2078321,66.7320156 98.2078321,66.7612444 C98.2078321,66.7904733 98.2260718,66.8165965 98.2535111,66.8266667 L99.8563556,67.4638222 C100.050646,67.5421594 100.204685,67.6961986 100.283022,67.8904889 L100.918756,69.4947556 C100.929926,69.520978 100.955675,69.5379969 100.984178,69.5379969 C101.01268,69.5379969 101.038429,69.520978 101.0496,69.4947556 L101.686756,67.8904889 C101.764271,67.6946773 101.918392,67.5390155 102.113422,67.4595556 L102.113422,67.4595556 Z" id="路径" fill="#F5C244"></path>
                            <path d="M101.627022,67.1580444 L102.541511,66.7939556 C102.556635,66.7879105 102.566553,66.773265 102.566553,66.7569778 C102.566553,66.7406906 102.556635,66.7260451 102.541511,66.72 L101.627022,66.3573333 C101.517542,66.3125037 101.43085,66.2252981 101.386667,66.1155556 L101.022578,65.2010667 C101.016533,65.1859428 101.001887,65.1760246 100.9856,65.1760246 C100.969313,65.1760246 100.954667,65.1859428 100.948622,65.2010667 L100.580267,66.1155556 C100.535633,66.2282789 100.446686,66.31774 100.334222,66.3630222 L99.4197333,66.7256889 C99.4046095,66.7317339 99.3946913,66.7463795 99.3946913,66.7626667 C99.3946913,66.7789539 99.4046095,66.7935994 99.4197333,66.7996444 L100.334222,67.1637333 C100.446501,67.2085469 100.535453,67.2974988 100.580267,67.4097778 L100.942933,68.3242667 C100.948978,68.3393905 100.963624,68.3493087 100.979911,68.3493087 C100.996198,68.3493087 101.010844,68.3393905 101.016889,68.3242667 L101.380978,67.4097778 C101.424036,67.2950592 101.513318,67.2037134 101.627022,67.1580444 L101.627022,67.1580444 Z" id="路径" fill="#F5C244"></path>
                            <polygon id="路径" fill="#FFFFFF" points="12.6414222 70.5528889 33.6234667 70.5528889 33.6234667 75.5704889 12.6414222 75.5704889"></polygon>
                            <polygon id="路径" fill="#FFFFFF" points="12.6414222 80.5895111 29.9911111 80.5895111 29.9911111 85.6071111 12.6414222 85.6071111"></polygon>
                        </g>
                    </g>
                    <g id="日历" transform="translate(30.000000, 35.000000)">
                        <rect id="矩形" fill="#000000" opacity="0" x="0" y="0" width="60" height="60"></rect>
                        <rect id="矩形" fill="#FFFFFF" x="7" y="12" width="44" height="11"></rect>
                        <rect id="矩形" fill="#F5C244" x="7" y="27" width="44" height="18"></rect>
                        <path d="M52.5,23.75 L52.5,14.375 C52.5,13.25 51.75,12.5 50.625,12.5 L41.25,12.5 L41.25,14.375 C41.25,15.5 40.5,16.25 39.375,16.25 C38.25,16.25 37.5,15.5 37.5,14.375 L37.5,12.5 L22.5,12.5 L22.5,14.375 C22.5,15.5 21.75,16.25 20.625,16.25 C19.5,16.25 18.75,15.5 18.75,14.375 L18.75,12.5 L9.375,12.5 C8.25,12.5 7.5,13.25 7.5,14.375 L7.5,23.75 L52.5,23.75 Z M52.5,27.5 L7.5,27.5 L7.5,44.375 C7.5,45.5 8.25,46.25 9.375,46.25 L50.625,46.25 C51.75,46.25 52.5,45.5 52.5,44.375 L52.5,27.5 Z M41.25,8.75 L50.625,8.75 C53.8125,8.75 56.25,11.1875 56.25,14.375 L56.25,44.375 C56.25,47.5625 53.8125,50 50.625,50 L9.375,50 C6.1875,50 3.75,47.5625 3.75,44.375 L3.75,14.375 C3.75,11.1875 6.1875,8.75 9.375,8.75 L18.75,8.75 L18.75,6.875 C18.75,5.75 19.5,5 20.625,5 C21.75,5 22.5,5.75 22.5,6.875 L22.5,8.75 L37.5,8.75 L37.5,6.875 C37.5,5.75 38.25,5 39.375,5 C40.5,5 41.25,5.75 41.25,6.875 L41.25,8.75 Z" id="形状" fill="#000000"></path>
                        <path d="M34,40.4142136 L27.5,40.4142136 L27.5,40.4142136 C26.6715729,40.4142136 26,39.7426407 26,38.9142136 C26,38.0857864 26.6715729,37.4142136 27.5,37.4142136 L33,37.4142136 L33,26.0857864 C33,25.2573593 33.6715729,24.5857864 34.5,24.5857864 C35.3284271,24.5857864 36,25.2573593 36,26.0857864 L36,38.4142136 C36,39.5187831 35.1045695,40.4142136 34,40.4142136 Z" id="路径" fill="#000000" transform="translate(31.000000, 32.500000) rotate(-315.000000) translate(-31.000000, -32.500000) "></path>
                    </g>
                </g>
            </g>
        </g>
    </g>
</svg>