<?xml version="1.0" encoding="UTF-8"?>
<svg width="64px" height="64px" viewBox="0 0 64 64" version="1.1" xmlns="http://www.w3.org/2000/svg" xmlns:xlink="http://www.w3.org/1999/xlink">
    <!-- Generator: Sketch 61 (89581) - https://sketch.com -->
    <title>Permissions_face@2x</title>
    <desc>Created with Sketch.</desc>
    <defs>
        <linearGradient x1="50%" y1="26.0973479%" x2="50%" y2="98.9527652%" id="linearGradient-1">
            <stop stop-color="#FFB300" offset="0%"></stop>
            <stop stop-color="#FF7F02" offset="100%"></stop>
        </linearGradient>
    </defs>
    <g id="1" stroke="none" stroke-width="1" fill="none" fill-rule="evenodd">
        <g id="橙-权限获取" transform="translate(-149.000000, -80.000000)" fill-rule="nonzero">
            <g id="权限页-笑脸-满意-服务" transform="translate(149.000000, 80.000000)">
                <g id="Permissions_face">
                    <rect id="矩形" fill="#000000" opacity="0" x="0" y="0" width="64" height="64"></rect>
                    <path d="M31.875,0 C14.26725,0 0,14.26725 0,31.875 C0,49.48275 14.26725,63.75 31.875,63.75 C49.48275,63.75 63.75,49.48275 63.75,31.875 C63.75,14.26725 49.48275,0 31.875,0 Z M17,21.25 C19.35025,21.25 21.25,23.14975 21.25,25.5 C21.25,27.85025 19.35025,29.75 17,29.75 C14.64975,29.75 12.75,27.85025 12.75,25.5 C12.75,23.14975 14.64975,21.25 17,21.25 Z M49.1045,40.137 C46.019,46.55875 39.474,51 31.875,51 C24.28025,51 17.74375,46.5545 14.65825,40.14125 C14.24175,39.729 13.9825,39.168 13.9825,38.539 C13.9825,37.29375 14.98975,36.2865 16.235,36.2865 C17.31875,36.2865 18.1815,37.07275 18.394,38.0885 C20.75275,43.19275 25.88675,46.75 31.875,46.75 C37.88025,46.75 43.03125,43.18 45.3815,38.0545 C45.6025,37.03875 46.46525,36.25675 47.549,36.25675 C48.79425,36.25675 49.80575,37.26825 49.80575,38.5135 C49.80575,39.15525 49.5295,39.729 49.1045,40.137 Z M46.75,29.75 C44.39975,29.75 42.5,27.85025 42.5,25.5 C42.5,23.14975 44.39975,21.25 46.75,21.25 C49.10025,21.25 51,23.14975 51,25.5 C51,27.85025 49.10025,29.75 46.75,29.75 Z" id="形状" fill="url(#linearGradient-1)"></path>
                </g>
            </g>
        </g>
    </g>
</svg>