<?xml version="1.0" encoding="UTF-8"?>
<svg width="24px" height="24px" viewBox="0 0 24 24" version="1.1" xmlns="http://www.w3.org/2000/svg" xmlns:xlink="http://www.w3.org/1999/xlink">
    <!-- Generator: Sketch 61 (89581) - https://sketch.com -->
    <title>Permissions_Tel@2x</title>
    <desc>Created with Sketch.</desc>
    <g id="1" stroke="none" stroke-width="1" fill="none" fill-rule="evenodd">
        <g id="橙-权限获取" transform="translate(-30.000000, -759.000000)" fill-rule="nonzero">
            <g id="中间信息" transform="translate(0.000000, 288.000000)">
                <g id="4" transform="translate(0.000000, 456.000000)">
                    <g id="授权页-电话" transform="translate(30.000000, 15.000000)">
                        <g id="Permissions_Tel">
                            <rect id="矩形" fill="#000000" opacity="0" x="0" y="0" width="24" height="24"></rect>
                            <path d="M10.3054049,1.60856538 C11.7601866,1.88135644 12.809811,4.58180555 13.1935747,5.73014695 C14.1581528,8.61555865 13.5706231,9.25868262 13.377554,9.46995537 C13.0982394,9.77519641 12.45135,10.115046 10.7548602,10.8400504 C11.2395236,12.1688215 12.2764845,13.8558138 12.8090195,14.358489 L12.8553081,14.3355365 L12.8553081,14.3355365 C14.4109654,13.5616532 15.3775101,13.1654179 16.0275653,13.2825304 C17.9266457,13.6267451 20.0077148,17.9083701 20.007331,19.5661022 C20.007331,20.8897168 18.5778762,21.8267854 17.676999,22.1065078 C16.890836,22.3506622 16.100356,22.4697415 15.3153922,22.4697415 C11.7340443,22.4697415 8.27139199,19.9884798 5.89952013,15.5659983 C3.09997022,10.3457216 3.4097682,5.00120918 6.65284936,2.56899422 C7.71909445,1.76920847 9.15408952,1.3927597 10.3054049,1.60856538 Z M9.62963911,3.16503811 C8.99028059,3.16503811 8.20889037,3.42773201 7.62531804,3.86553117 C5.50863314,5.45265511 4.51280433,9.5514761 7.32779974,14.8000536 C9.28820658,18.4561827 12.9095113,21.8897427 17.1966767,20.5588131 C17.7984527,20.3720757 18.3867738,19.8324176 18.3867738,19.5659583 C18.3871575,18.1782591 16.5284417,15.0823661 15.76408,14.8829414 C15.5658544,14.8954129 15.0226466,15.0674962 13.5769788,15.7865767 C13.1093199,16.0190271 13.0104109,16.0682657 12.7967638,16.0682657 L12.7940057,16.0682657 C11.1825622,16.0660832 9.25578059,11.7454845 8.98238993,10.5686505 C8.83481798,9.89506713 9.35389805,9.67470455 9.90343746,9.44146268 C11.0856199,8.93960295 11.8282285,8.59459685 12.1170406,8.41359159 C12.2966549,7.21716277 10.6630504,3.47143038 9.9845265,3.19547346 C9.87336188,3.17491941 9.75425862,3.16503811 9.62963911,3.16503811 Z M16.7892221,4.51837123 C18.3020765,5.02204548 19.5627884,6.15531254 20.3192156,7.54041672 C21.0756427,9.05143946 21.2017139,10.6883808 20.6974291,12.1994035 C20.5713579,12.4512406 20.3192156,12.7030777 19.941002,12.5771592 C19.6888596,12.4512406 19.4367172,12.1994035 19.5627884,11.8216478 C19.941002,10.5624622 19.941002,9.17735802 19.310646,8.04409096 C18.68029,6.91082391 17.6717205,6.02939398 16.4110086,5.52571973 C16.179878,5.52571973 16.0546824,5.20830002 16.1325284,4.86442867 L16.1588662,4.77020836 L16.1588662,4.77020836 C16.2849374,4.51837123 16.5370798,4.39245267 16.7892221,4.51837123 Z M16.2849374,6.78490535 C18.1760053,7.41449816 19.1845748,9.42919514 18.5542189,11.3179736 C18.4281477,11.5698107 18.1760053,11.8216478 17.7977917,11.6957293 C17.5456493,11.5698107 17.2935069,11.3179736 17.4195781,10.9402179 C17.7977917,9.68103227 17.1674357,8.29592809 15.9067238,7.9181724 C15.6797956,7.8048457 15.5549852,7.48753092 15.6241983,7.14981734 L15.6545814,7.03674247 L15.6545814,7.03674247 C15.7806526,6.78490535 16.032795,6.65898678 16.2849374,6.78490535 Z M15.2763678,8.54776521 C15.9067238,8.67368377 16.2849374,9.05143946 16.5370798,9.5551137 C16.7892221,10.058788 16.7892221,10.5624622 16.663151,11.0661364 C16.5370798,11.3179736 16.2849374,11.5698107 15.9067238,11.4438921 C15.6545814,11.3179736 15.402439,11.0661364 15.5285102,10.6883808 C15.6545814,10.4365436 15.5285102,10.1847065 15.5285102,10.058788 C15.402439,9.80695083 15.1502966,9.68103227 15.0242254,9.5551137 C14.6460119,9.5551137 14.5199407,9.17735802 14.6460119,8.79960233 C14.7720831,8.54776521 15.0242254,8.42184665 15.2763678,8.54776521 Z" id="形状" fill="#4AD2D6"></path>
                        </g>
                    </g>
                </g>
            </g>
        </g>
    </g>
</svg>