<?xml version="1.0" encoding="UTF-8"?>
<svg width="24px" height="24px" viewBox="0 0 24 24" version="1.1" xmlns="http://www.w3.org/2000/svg" xmlns:xlink="http://www.w3.org/1999/xlink">
    <!-- Generator: Sketch 61 (89581) - https://sketch.com -->
    <title>Permissions_pic@2x</title>
    <desc>Created with Sketch.</desc>
    <g id="1" stroke="none" stroke-width="1" fill="none" fill-rule="evenodd">
        <g id="橙-权限获取" transform="translate(-30.000000, -607.000000)" fill-rule="nonzero">
            <g id="中间信息" transform="translate(0.000000, 288.000000)">
                <g id="3" transform="translate(0.000000, 304.000000)">
                    <g id="授权页-照片" transform="translate(30.000000, 15.000000)">
                        <g id="Permissions_pic">
                            <rect id="矩形" fill="#000000" opacity="0" x="0" y="0" width="24" height="24"></rect>
                            <path d="M19.5927001,20.8378639 L4.30273076,20.8378639 C2.75731455,20.8378639 1.4995593,19.5801327 1.4995593,18.0346925 L1.4995593,5.80272176 C1.4995593,4.25730555 2.75729055,2.9995503 4.30273076,2.9995503 L19.5927002,2.9995503 C21.1381164,2.9995503 22.3958716,4.25728155 22.3958716,5.80272176 L22.3958716,18.0346925 C22.3958716,19.5801327 21.1381164,20.8378639 19.5927001,20.8378639 Z M4.30273076,4.52856164 C3.59995924,4.52856164 3.02857064,5.09995024 3.02857064,5.80272176 L3.02857064,18.0346925 C3.02857064,18.737464 3.59995924,19.3088526 4.30273076,19.3088526 L19.5927002,19.3088526 C20.2954717,19.3088526 20.8668603,18.737464 20.8668603,18.0346925 L20.8668603,5.80272176 C20.8668603,5.09995024 20.2954717,4.52856164 19.5927001,4.52856164 L4.30273076,4.52856164 Z M11.1865915,17.9903465 C10.9909801,17.9903465 10.7953927,17.9156852 10.64607,17.7663624 L8.12859281,15.2488853 L5.80274573,17.575236 C5.50412421,17.8738575 5.02032422,17.8738575 4.72170267,17.575236 C4.42308115,17.2766145 4.42308115,16.7928145 4.72170267,16.4941929 L7.58807128,13.6273207 C7.87474891,13.340643 8.38243671,13.340643 8.66911434,13.6273207 L11.727113,16.6853194 C12.0257345,16.9839409 12.0257345,17.4677409 11.727113,17.7663624 C11.5777903,17.9156852 11.3822029,17.9903465 11.1865915,17.9903465 Z M18.7239851,16.8242572 C18.5283738,16.8242572 18.3327864,16.7495958 18.1834636,16.600273 L13.8572768,12.2740862 L10.678441,15.51923 C10.3798195,15.8178515 9.89601949,15.8178515 9.59739794,15.51923 C9.29877642,15.2206084 9.29877642,14.7368085 9.59739794,14.4381869 L13.3167552,10.6525216 C13.6153768,10.3539 14.0991768,10.3539 14.3977983,10.6525216 L19.2645307,15.51923 C19.5631522,15.8178515 19.5631522,16.3016515 19.2645307,16.600273 C19.1152079,16.7495958 18.9195965,16.8242572 18.7239851,16.8242572 Z M8.79996961,10.8993862 C7.25455341,10.8993862 5.99679816,9.64165498 5.99679816,8.09621477 C5.99679816,6.55077457 7.25452941,5.29304332 8.79996961,5.29304332 C10.3454098,5.29304332 11.6031411,6.55077457 11.6031411,8.09621477 C11.6031411,9.64165498 10.3453858,10.8993862 8.79996961,10.8993862 Z M8.79996961,6.82205466 C8.09719809,6.82205466 7.52580949,7.39344326 7.52580949,8.09621477 C7.52580949,8.79898629 8.09719809,9.37037489 8.79996961,9.37037489 C9.50274113,9.37037489 10.0741297,8.79898629 10.0741297,8.09621477 C10.0741297,7.39344323 9.50274115,6.82205466 8.79996961,6.82205466 Z" id="形状" fill="#4AD2D6"></path>
                        </g>
                    </g>
                </g>
            </g>
        </g>
    </g>
</svg>