<?xml version="1.0" encoding="UTF-8"?>
<svg width="24px" height="24px" viewBox="0 0 24 24" version="1.1" xmlns="http://www.w3.org/2000/svg" xmlns:xlink="http://www.w3.org/1999/xlink">
    <!-- Generator: Sketch 61 (89581) - https://sketch.com -->
    <title>Permissions_contact@2x</title>
    <desc>Created with Sketch.</desc>
    <g id="1" stroke="none" stroke-width="1" fill="none" fill-rule="evenodd">
        <g id="橙-权限获取" transform="translate(-30.000000, -911.000000)" fill-rule="nonzero">
            <g id="中间信息" transform="translate(0.000000, 288.000000)">
                <g id="5" transform="translate(0.000000, 608.000000)">
                    <g id="授权页-联系人" transform="translate(30.000000, 15.000000)">
                        <g id="Permissions_contact">
                            <rect id="矩形" fill="#000000" opacity="0" x="0" y="0" width="24" height="24"></rect>
                            <path d="M18,2.25 C20.0625,2.25 21.75,3.9375 21.75,6 L21.75,6 L21.75,18 C21.75,20.0625 20.0625,21.75 18,21.75 L18,21.75 L7.5,21.75 C5.4375,21.75 3.75,20.0625 3.75,18 L3.75,18 L3.75,15.75 L3,15.75 C2.5875,15.75 2.25,15.4125 2.25,15 C2.25,14.5875 2.5875,14.25 3,14.25 L3,14.25 L3.75,14.25 L3.75,9.75 L3,9.75 C2.5875,9.75 2.25,9.4125 2.25,9 C2.25,8.5875 2.5875,8.25 3,8.25 L3,8.25 L3.75,8.25 L3.75,6 C3.75,3.9375 5.4375,2.25 7.5,2.25 L7.5,2.25 Z M18,3.75 L7.5,3.75 C6.2625,3.75 5.25,4.7625 5.25,6 L5.25,6 L5.25,8.25 L6,8.25 C6.4125,8.25 6.75,8.5875 6.75,9 C6.75,9.4125 6.4125,9.75 6,9.75 L6,9.75 L5.25,9.75 L5.25,14.25 L6,14.25 C6.4125,14.25 6.75,14.5875 6.75,15 C6.75,15.4125 6.4125,15.75 6,15.75 L6,15.75 L5.25,15.75 L5.25,18 C5.25,19.2375 6.2625,20.25 7.5,20.25 L7.5,20.25 L18,20.25 C19.2375,20.25 20.25,19.2375 20.25,18 L20.25,18 L20.25,6 C20.25,4.7625 19.2375,3.75 18,3.75 L18,3.75 Z M13.125,6 C14.775,6 16.125,7.35 16.125,9 C16.125,9.7125 15.8625,10.35 15.45,10.875 C17.175,11.625 18.375,13.5375 18.375,15.75 C18.375,16.9875 17.3625,18 16.125,18 L16.125,18 L10.125,18 C8.8875,18 7.875,16.9875 7.875,15.75 C7.875,13.5375 9.075,11.625 10.8,10.875 C10.3875,10.35 10.125,9.7125 10.125,9 C10.125,7.35 11.475,6 13.125,6 Z M13.7625,12 L12.45,12 C10.7625,12 9.375,13.6875 9.375,15.75 C9.375,16.1625 9.7125,16.5 10.125,16.5 L10.125,16.5 L16.125,16.5 C16.5375,16.5 16.875,16.1625 16.8375,15.75 C16.8375,13.6875 15.45,12 13.7625,12 L13.7625,12 Z M13.125,7.5 C12.3,7.5 11.625,8.175 11.625,9 C11.625,9.825 12.3,10.5 13.125,10.5 C13.95,10.5 14.625,9.825 14.625,9 C14.625,8.175 13.95,7.5 13.125,7.5 Z" id="形状结合" fill="#4AD2D6"></path>
                        </g>
                    </g>
                </g>
            </g>
        </g>
    </g>
</svg>