<?xml version="1.0" encoding="UTF-8"?>
<svg width="24px" height="24px" viewBox="0 0 24 24" version="1.1" xmlns="http://www.w3.org/2000/svg" xmlns:xlink="http://www.w3.org/1999/xlink">
    <!-- Generator: Sketch 61 (89581) - https://sketch.com -->
    <title>Permissions_positioning@2x</title>
    <desc>Created with Sketch.</desc>
    <g id="1" stroke="none" stroke-width="1" fill="none" fill-rule="evenodd">
        <g id="橙-权限获取" transform="translate(-30.000000, -455.000000)" fill-rule="nonzero">
            <g id="中间信息" transform="translate(0.000000, 288.000000)">
                <g id="2" transform="translate(0.000000, 152.000000)">
                    <g id="授权页-定位" transform="translate(30.000000, 15.000000)">
                        <g id="Permissions_positioning">
                            <rect id="矩形" fill="#000000" opacity="0" x="0" y="0" width="24" height="24"></rect>
                            <path d="M12,2.25 C16.7220346,2.25 20.55,6.07796539 20.55,10.8 C20.55,13.884 17.9688,17.532 12.8724,21.8472 C12.3696,22.2732 11.6316,22.2732 11.1276,21.8472 C6.0312,17.532 3.45,13.884 3.45,10.8 C3.45,6.07796539 7.27796539,2.25 12,2.25 Z M12,3.75000011 C8.10639255,3.75000011 4.95,6.90639255 4.95,10.8 C4.95,13.2972 7.278,16.6044 12,20.6196 C16.722,16.6044 19.05,13.2972 19.05,10.8 C19.05,6.90639255 15.8936074,3.75000011 12,3.75000011 Z M12,7.05 C14.0710678,7.05 15.7499999,8.72893219 15.7499999,10.8 C15.7499999,12.8710678 14.0710678,14.55 12,14.55 C10.660254,14.55 9.42227768,13.8352541 8.75240469,12.675 C8.0825317,11.514746 8.0825317,10.085254 8.75240469,8.92499998 C9.42227768,7.76474594 10.660254,7.05 12,7.05 Z M12,8.55 C10.7573593,8.55 9.75000005,9.55735933 9.75000005,10.8 C9.75000005,12.0426407 10.7573593,13.05 12,13.05 C12.8038476,13.05 13.5466334,12.6211525 13.9485572,11.925 C14.350481,11.2288476 14.350481,10.3711524 13.9485572,9.67499998 C13.5466334,8.97884755 12.8038476,8.55 12,8.55 Z" id="形状结合" fill="#47D2D6"></path>
                        </g>
                    </g>
                </g>
            </g>
        </g>
    </g>
</svg>