<?xml version="1.0" encoding="UTF-8"?>
<svg width="24px" height="24px" viewBox="0 0 24 24" version="1.1" xmlns="http://www.w3.org/2000/svg" xmlns:xlink="http://www.w3.org/1999/xlink">
    <!-- Generator: Sketch 61 (89581) - https://sketch.com -->
    <title>Permissions_camera@2x</title>
    <desc>Created with Sketch.</desc>
    <g id="1" stroke="none" stroke-width="1" fill="none" fill-rule="evenodd">
        <g id="橙-权限获取" transform="translate(-30.000000, -1063.000000)" fill-rule="nonzero">
            <g id="中间信息" transform="translate(0.000000, 288.000000)">
                <g id="6" transform="translate(0.000000, 760.000000)">
                    <g id="授权页-相机" transform="translate(30.000000, 15.000000)">
                        <g id="Permissions_camera">
                            <rect id="矩形" fill="#000000" opacity="0" x="0" y="0" width="24" height="24"></rect>
                            <path d="M9.70105263,4.6105263 C10.1407192,4.61559809 10.5388343,4.87144163 10.7261053,5.26926316 L11.4581053,6.44021053 C11.5024389,6.50871031 11.5344716,6.58289589 11.5540453,6.65965617 L20.0204211,6.66 C20.6060607,6.64926748 21.1708794,6.87718302 21.5850587,7.29136233 C21.999238,7.70554164 22.2271536,8.27036034 22.2164211,8.856 L22.2164211,19.9086316 C22.2133023,21.1197645 21.232814,22.1010992 20.0216842,22.1052632 L4.3585263,22.1052632 C3.77288665,22.1159957 3.20806794,21.8880801 2.79388864,21.4739008 C2.37970933,21.0597215 2.15179378,20.4949028 2.1625263,19.9092632 L2.1625263,8.85663157 C2.15163047,8.27110656 2.37929782,7.7063221 2.7932195,7.29204308 C3.20714118,6.87776407 3.77172897,6.64960943 4.35726316,6.66 L4.47492445,6.65988658 C4.49610278,6.58218977 4.53037093,6.507832 4.57705263,6.44021053 L5.30905263,5.26926316 C5.48765507,4.86393712 5.89121379,4.60459531 6.33410527,4.6105263 L9.70105263,4.6105263 Z M20.0216842,8.05073684 L4.3585263,8.05073684 C4.16124827,8.03983863 3.96866167,8.11345354 3.82895234,8.25316287 C3.68924301,8.3928722 3.6156281,8.5854588 3.6265263,8.78273684 L3.6265263,19.8353684 C3.6156281,20.0326465 3.68924301,20.2252331 3.82895234,20.3649424 C3.96866167,20.5046517 4.16124827,20.5782666 4.3585263,20.5673684 L20.0216842,20.5673684 C20.2189622,20.5782666 20.4115488,20.5046517 20.5512582,20.3649424 C20.6909675,20.2252331 20.7645824,20.0326465 20.7536842,19.8353684 L20.7536842,8.78273684 C20.7645824,8.5854588 20.6909675,8.3928722 20.5512582,8.25316287 C20.4115488,8.11345354 20.2189622,8.03983863 20.0216842,8.05073684 Z M11.7137341,10.2370494 C13.4644183,10.9622066 14.6058947,12.6705468 14.6058947,14.5654737 C14.5879963,17.1455067 12.5008751,19.2326279 9.9208421,19.2505263 C8.02591519,19.2505263 6.31757499,18.1090499 5.59241786,16.3583657 C4.86726073,14.6076815 5.26809395,12.5925568 6.60800962,11.2526412 C7.94792529,9.91272551 9.96304996,9.5118923 11.7137341,10.2370494 Z M9.9208421,11.3450526 C8.14190385,11.3450526 6.69978947,12.787167 6.69978947,14.5661053 C6.69978947,16.3450526 8.14190385,17.7871579 9.9208421,17.7871579 C11.6997895,17.7871579 13.1418947,16.3450526 13.1418947,14.5661053 C13.1264584,12.7936003 11.693347,11.360489 9.9208421,11.3450526 Z M18.9972632,10.7595789 C19.4015356,10.7595789 19.7292632,11.0873065 19.7292632,11.4915789 C19.7292632,11.8958514 19.4015356,12.2235789 18.9972632,12.2235789 L16.8012632,12.2235789 C16.3969907,12.2235789 16.0692632,11.8958514 16.0692632,11.4915789 C16.0692632,11.0873065 16.3969907,10.7595789 16.8012632,10.7595789 L18.9972632,10.7595789 Z M9.5551579,6.14778947 L6.55389473,6.14778947 L6.24615245,6.65942668 L9.86215245,6.65942668 L9.5551579,6.14778947 Z" id="形状结合" fill="#4AD2D6"></path>
                        </g>
                    </g>
                </g>
            </g>
        </g>
    </g>
</svg>