<?xml version="1.0" encoding="UTF-8"?>
<svg width="20px" height="20px" viewBox="0 0 20 20" version="1.1" xmlns="http://www.w3.org/2000/svg" xmlns:xlink="http://www.w3.org/1999/xlink">
    <!-- Generator: Sketch 61 (89581) - https://sketch.com -->
    <title>pop-up_close@2x</title>
    <desc>Created with Sketch.</desc>
    <g id="1" stroke="none" stroke-width="1" fill="none" fill-rule="evenodd">
        <g id="橙-个人中心-还款页-金额详情" transform="translate(-314.000000, -203.000000)" fill-rule="nonzero">
            <g id="弹窗关闭图标" transform="translate(314.000000, 203.000000)">
                <g id="pop-up_close">
                    <rect id="矩形" fill="#FF7777" opacity="0" x="0" y="0" width="20" height="20"></rect>
                    <path d="M17.6672619,3.06066017 L10.7175144,10.0104076 L10.7175144,10.0104076 L17.6672619,16.9601551 C17.862524,17.1554173 17.862524,17.4719997 17.6672619,17.6672619 C17.4719997,17.862524 17.1554173,17.862524 16.9601551,17.6672619 L10.0097005,10.7168073 L10.0097005,10.7168073 L3.06062594,17.6672277 C2.8654016,17.8624898 2.54884976,17.8625205 2.35358762,17.6672961 C2.35357621,17.6672847 2.3535648,17.6672733 2.35355339,17.6672619 C2.15828571,17.4719942 2.15827038,17.1554075 2.35351916,16.9601209 L9.30259375,10.0097005 L9.30259375,10.0097005 L2.35355339,3.06066017 C2.15829124,2.86539803 2.15829124,2.54881554 2.35355339,2.35355339 C2.54881554,2.15829124 2.86539803,2.15829124 3.06066017,2.35355339 L10.0104076,9.30330086 L10.0104076,9.30330086 L16.9601551,2.35355339 C17.1554173,2.15829124 17.4719997,2.15829124 17.6672619,2.35355339 C17.862524,2.54881554 17.862524,2.86539803 17.6672619,3.06066017 Z" id="路径" fill="#666666"></path>
                </g>
            </g>
        </g>
    </g>
</svg>