<?xml version="1.0" encoding="UTF-8"?>
<svg width="24px" height="24px" viewBox="0 0 24 24" version="1.1" xmlns="http://www.w3.org/2000/svg" xmlns:xlink="http://www.w3.org/1999/xlink">
    <!-- Generator: Sketch 61 (89581) - https://sketch.com -->
    <title>Positioning_Email@2x</title>
    <desc>Created with Sketch.</desc>
    <g id="1" stroke="none" stroke-width="1" fill="none" fill-rule="evenodd">
        <g id="橙-权限获取" transform="translate(-30.000000, -303.000000)" fill-rule="nonzero">
            <g id="中间信息" transform="translate(0.000000, 288.000000)">
                <g id="1">
                    <g id="授权页-邮件" transform="translate(30.000000, 15.000000)">
                        <g id="Positioning_Email">
                            <rect id="矩形" fill="#000000" opacity="0" x="0" y="0" width="24" height="24"></rect>
                            <path d="M18.5,3 L5.75,3 C3.6875,3 2,4.6875 2,6.75 L2,16.5 C2,18.5625 3.6875,20.25 5.75,20.25 L18.5,20.25 C20.5625,20.25 22.25,18.5625 22.25,16.5 L22.25,6.75 C22.25,4.6875 20.5625,3 18.5,3 Z M5.75,4.5 L18.5,4.5 C19.325,4.5 20.0375,4.95 20.4125,5.5875 L13.0625,11.55 C12.5,12 11.7125,12 11.1875,11.55 L3.8375,5.5875 C4.2125,4.95 4.925,4.5 5.75,4.5 Z M18.5,18.75 L5.75,18.75 C4.5125,18.75 3.5,17.7375 3.5,16.5 L3.5,7.275 L10.25,12.75 C10.8125,13.2 11.45,13.425 12.125,13.425 C12.8,13.425 13.475,13.2 14,12.75 L20.75,7.275 L20.75,16.5 C20.75,17.7375 19.7375,18.75 18.5,18.75 Z" id="形状" fill="#47D2D6"></path>
                        </g>
                    </g>
                </g>
            </g>
        </g>
    </g>
</svg>