<?xml version="1.0" encoding="UTF-8"?>
<svg width="18px" height="18px" viewBox="0 0 18 18" version="1.1" xmlns="http://www.w3.org/2000/svg" xmlns:xlink="http://www.w3.org/1999/xlink">
    <!-- Generator: Sketch 61 (89581) - https://sketch.com -->
    <title>Review the lending_ID right_ question mark@2x</title>
    <desc>Created with Sketch.</desc>
    <g id="1" stroke="none" stroke-width="1" fill="none" fill-rule="evenodd">
        <g id="橙-主页-待借款" transform="translate(-322.000000, -33.000000)" fill-rule="nonzero">
            <g id="审核放贷-ID右-问号" transform="translate(322.000000, 33.000000)">
                <g id="Review-the-lending_ID-right_-question-mark">
                    <rect id="矩形" fill="#000000" opacity="0" x="0" y="0" width="18" height="18"></rect>
                    <path d="M8.00523529,13.9732941 L9.49711765,13.9732941 L9.49711765,12.4814118 L8.00523529,12.4814118 L8.00523529,13.9732941 Z M10.2933529,9.29858824 C9.54688236,9.79623529 9.19905884,10.3923529 9.19905882,11.0392941 L9.19905882,11.4866471 L8.00470589,11.4866471 L8.00470589,10.9397647 C7.95494118,10.0445294 8.40282354,9.24882353 9.19852942,8.65164705 C10.0932353,8.00576471 10.5411177,7.35882353 10.4415882,6.76164705 C10.3420588,5.86694116 9.84494118,5.36929411 8.89994118,5.31952942 C7.80564707,5.26976471 7.1094706,5.91670589 6.86117647,7.25929411 L5.51805882,6.91094118 C5.91617647,4.92194118 7.15923529,3.97694118 9.14876471,4.02670589 C10.8894706,4.12623531 11.7847059,4.97170589 11.9832353,6.61288235 C12.0335294,7.60764705 11.4861176,8.50288235 10.2928235,9.29858824 L10.2933529,9.29858824 Z M9,1.04241176 C4.62335295,1.04294118 1.04294118,4.62335295 1.04294118,9 C1.04294118,13.3771765 4.62335295,16.9581177 9,16.9581177 C13.3766471,16.9581177 16.9570588,13.3766471 16.9570588,9 C16.9570588,4.62335295 13.3771765,1.04294118 9,1.04294118 L9,1.04241176 Z M9,17.9518235 C4.07647058,17.9523529 0.0476470547,13.9235294 0.0476470547,9 C0.0476470547,4.07647058 4.07647058,0.0476470547 9,0.0476470547 C13.9235294,0.0476470547 17.9523529,4.07647058 17.9523529,9 C17.9523529,13.9235294 13.9235294,17.9523529 9,17.9523529 L9,17.9518235 Z" id="形状" fill="#FFFFFF"></path>
                </g>
            </g>
        </g>
    </g>
</svg>