<?xml version="1.0" encoding="UTF-8"?>
<svg width="20px" height="20px" viewBox="0 0 20 20" version="1.1" xmlns="http://www.w3.org/2000/svg" xmlns:xlink="http://www.w3.org/1999/xlink">
    <!-- Generator: Sketch 61 (89581) - https://sketch.com -->
    <title>service_Tel@2x</title>
    <desc>Created with Sketch.</desc>
    <g id="1" stroke="none" stroke-width="1" fill="none" fill-rule="evenodd">
        <g id="橙-个人中心-客服中心" transform="translate(-308.000000, -245.000000)" fill-rule="nonzero">
            <g id="列表2" transform="translate(16.000000, 227.000000)">
                <g id="客服中心-电话" transform="translate(292.000000, 18.000000)">
                    <g id="service_Tel">
                        <rect id="矩形" fill="#000000" opacity="0" x="0" y="0" width="20" height="20"></rect>
                        <path d="M12.2078125,12.97 C12.0953125,12.9916562 12.0064375,13.0540937 11.836,13.2352187 L11.7004375,13.3792187 C11.3812187,13.7175625 11.112625,13.9085312 10.7067812,14.012875 C10.2435625,14.1326875 9.7575625,14.0199062 9.3626875,13.7127812 C9.0915625,13.5004375 8.0846875,12.4935625 7.606,11.9223437 L7.2724375,11.5285937 L7.26034375,11.513125 C6.59321875,10.7273125 6.36990625,10.4452187 6.27878125,10.2292187 C6.020875,9.62453125 6.0146875,9.044875 6.27878125,8.55746875 C6.4264375,8.28184375 6.653125,8.092 6.99034375,7.89765625 C7.031125,7.87346875 7.32390625,7.714 7.3815625,7.678 C7.4209375,7.65409375 7.4344375,7.642 7.4209375,7.66365625 C7.64453125,7.27721875 7.517125,6.1024375 7.0733125,5.03453125 C6.56425,3.80546875 5.555125,2.88296875 5.18078125,2.97634375 C4.53165625,3.140875 3.593125,3.6904375 3.14790625,4.204 C2.11853125,5.392 3.21146875,10.1524375 5.92384375,13.3876562 C8.34540625,16.2735625 12.3146875,18.1205312 14.6594687,17.5839062 C15.1983437,17.4601562 16.1427812,16.1703437 16.2173125,15.3772187 C16.244875,15.077125 15.3735625,14.2634687 14.3140937,13.6874687 C13.438,13.2121562 12.5534687,12.9075625 12.2066875,12.97 L12.2080937,12.97 L12.2078125,12.97 Z M14.7435625,12.896875 C16.1259062,13.6478125 17.1904375,14.640625 17.1125312,15.4624375 C17.0045312,16.6144375 15.8114687,18.244 14.86,18.461125 C12.142,19.084375 7.85209375,17.0875 5.23478125,13.9647812 C2.27209375,10.4345312 1.07453125,5.2193125 2.4675625,3.61590625 C3.03765625,2.95609375 4.1393125,2.31146875 4.96225,2.10390625 C5.89965625,1.86990625 7.246,3.10009375 7.9046875,4.69140625 C8.4446875,5.9933125 8.60078125,7.42234375 8.201125,8.11478125 C8.11778073,8.24944268 8.00179111,8.36088559 7.86390625,8.43878125 C7.7764375,8.49503125 7.45609375,8.668 7.43921875,8.6786875 C7.2353125,8.79653125 7.12140625,8.8913125 7.07190625,8.9846875 C6.9473125,9.2153125 6.9495625,9.50921875 7.10790625,9.8790625 C7.14390625,9.964 7.41165625,10.3009375 7.946875,10.93375 L7.9586875,10.9478125 L8.29478125,11.3452187 C8.73634375,11.872 9.69878125,12.8358437 9.9173125,13.006 C10.0729707,13.1384067 10.2822098,13.189125 10.4812187,13.1426875 C10.6913125,13.0886875 10.8327812,12.988 11.045125,12.7624375 L11.1806875,12.6184375 C11.4712188,12.3113125 11.6967812,12.1504375 12.0446875,12.086875 C12.6676563,11.9715625 13.6863438,12.3245312 14.7435625,12.898 L14.7435625,12.896875 Z" id="形状" stroke="#47D2D6" stroke-width="0.2" fill="#47D2D6"></path>
                        <path d="M17.542,9.67853125 C17.5399618,9.84428816 17.4469579,9.99550193 17.2999418,10.0720903 C17.1529257,10.1486786 16.9757074,10.1382377 16.8387017,10.044916 C16.7016959,9.9515943 16.6270915,9.79050577 16.6445312,9.62565625 C16.8352187,6.39521875 14.357125,3.611125 11.1196562,3.4204375 C10.8714388,3.40583647 10.6820552,3.19277998 10.6966562,2.9445625 C10.7112573,2.69634502 10.9243138,2.50696147 11.1725312,2.5215625 C14.9055625,2.74234375 17.7625,5.9528125 17.542,9.67853125 Z M12.2753125,9.3671875 C12.2607891,9.61540498 12.0477956,9.80485149 11.7995781,9.79032813 C11.5513606,9.77580476 11.3619141,9.56281123 11.3764375,9.31459375 C11.3926913,8.98531938 11.1392459,8.70506977 10.81,8.68825 C10.644792,8.6856489 10.4942965,8.59271886 10.4179722,8.44617517 C10.3416479,8.29963148 10.3517716,8.12304614 10.4443438,7.98618543 C10.5369159,7.84932472 10.6970459,7.77420309 10.8614687,7.7905 C11.6894687,7.8383125 12.323125,8.54425 12.2753125,9.3671875 L12.2753125,9.3671875 Z M14.9078125,9.535375 C14.893641,9.7824065 14.6829067,9.97178652 14.4357701,9.95958415 C14.1886335,9.94738178 13.9975801,9.73816349 14.0078125,9.4909375 C14.0966875,7.7100625 12.7264375,6.16684375 10.9599062,6.0540625 C10.7950118,6.04989856 10.6456102,5.95585314 10.5705533,5.80897232 C10.4954964,5.6620915 10.5068144,5.48591751 10.6000489,5.34984826 C10.6932834,5.21377902 10.8534908,5.13962386 11.0175625,5.15659375 C13.276,5.30059375 15.01975,7.26371875 14.9080937,9.535375 L14.9078125,9.535375 Z" id="形状" stroke="#47D2D6" stroke-width="0.2" fill="#47D2D6"></path>
                    </g>
                </g>
            </g>
        </g>
    </g>
</svg>