<?xml version="1.0" encoding="UTF-8"?>
<svg width="20px" height="20px" viewBox="0 0 20 20" version="1.1" xmlns="http://www.w3.org/2000/svg" xmlns:xlink="http://www.w3.org/1999/xlink">
    <!-- Generator: Sketch 61 (89581) - https://sketch.com -->
    <title>service_copy@2x</title>
    <desc>Created with Sketch.</desc>
    <g id="1" stroke="none" stroke-width="1" fill="none" fill-rule="evenodd">
        <g id="橙-个人中心-客服中心" transform="translate(-308.000000, -400.000000)" fill-rule="nonzero">
            <g id="列表2" transform="translate(16.000000, 382.000000)">
                <g id="客服中心-复制" transform="translate(292.000000, 18.000000)">
                    <g id="service_copy">
                        <rect id="矩形" fill="#000000" opacity="0" x="0" y="0" width="20" height="20"></rect>
                        <path d="M1.87695312,11.2441406 C1.87695312,11.5903973 2.15852404,11.8710937 2.50585937,11.8710937 C2.85319471,11.8710937 3.13476562,11.5903973 3.13476562,11.2441406 C3.13476562,10.897884 2.85319471,10.6171875 2.50585937,10.6171875 C2.15852404,10.6171875 1.87695312,10.897884 1.87695312,11.2441406 Z" id="路径" fill="#47D2D6"></path>
                        <path d="M14.4941406,8.80273438 L9.23046875,8.76170828 C8.95117188,8.75976563 8.72265625,9.03125 8.72265625,9.3671875 C8.72265625,9.703125 8.95117188,9.97851563 9.23046875,9.98046875 L14.4941406,10.0214948 C14.7734375,10.0234375 15.0019531,9.75195313 15.0019531,9.41601563 C15.0019531,9.08007813 14.7734375,8.8046875 14.4941406,8.80273438 L14.4941406,8.80273438 Z M14.4941406,11.2832031 L9.23046875,11.242177 C8.95117188,11.2402344 8.72265625,11.5117188 8.72265625,11.8476563 C8.72265625,12.1835938 8.95117188,12.4589844 9.23046875,12.4609375 L14.4941406,12.5019531 C14.7734375,12.5058594 15.0019531,12.2324219 15.0019531,11.8964844 C15.0019531,11.5605469 14.7734375,11.2851563 14.4941406,11.2832031 Z" id="形状" fill="#47D2D6"></path>
                        <path d="M14.3769531,1.24804688 L8.14453125,1.24804688 C6.76953125,1.24804688 5.64453125,2.37304688 5.64453125,3.74804688 L4.37695313,3.74804688 C3.00195312,3.74804688 1.87695312,4.87304688 1.87695312,6.24804688 L1.87695312,8.74804688 C1.875,9.09375 2.15820312,9.37304688 2.50585938,9.37304688 C2.85351563,9.37304688 3.13476563,9.09179688 3.13476563,8.74609375 L3.13476563,6.25 C3.13476563,5.5625 3.69726563,5 4.38476563,5 L5.64453125,5 L5.64453125,13.7460938 C5.64453125,15.1210938 6.76953125,16.2460938 8.14453125,16.2460938 L13.1269531,16.2460938 C13.125,16.9335938 12.5644531,17.4921875 11.8769531,17.4921875 L4.38476563,17.4921875 C3.69726563,17.4921875 3.13476563,16.9296875 3.13476563,16.2421875 L3.13476563,13.7402344 C3.13476563,13.3945312 2.85351562,13.1132812 2.50585938,13.1132812 C2.15820312,13.1132812 1.875,13.3945312 1.875,13.7402344 L1.875,16.2460938 C1.875,17.6210938 3,18.7460938 4.375,18.7460938 L11.8769531,18.7460938 C13.2519531,18.7460938 14.3769531,17.6210938 14.3769531,16.2460938 L15.6464844,16.2460938 C17.0214844,16.2460938 18.1464844,15.1210938 18.1464844,13.7460938 L18.1464844,4.99804688 L14.3769531,1.24804688 Z M14.3789063,2.48632812 L16.8730469,4.9921875 L15.625,4.9921875 C14.9375,4.9921875 14.375,4.4296875 14.375,3.7421875 L14.375,2.48632812 L14.3789063,2.48632812 Z M15.6289063,15.0058594 L8.12695313,15.0058594 C7.43945313,15.0058594 6.87695313,14.4433594 6.87695313,13.7558594 L6.87695313,3.73632812 C6.87695313,3.04882812 7.43945313,2.48632812 8.12695313,2.48632812 L13.1054688,2.48632812 L13.1054688,3.73046875 C13.1054688,5.10546875 14.2304688,6.23046875 15.6054688,6.23046875 L16.8789062,6.23046875 L16.8789062,13.7558594 C16.8789062,14.4433594 16.3164062,15.0058594 15.6289063,15.0058594 Z" id="形状" fill="#47D2D6"></path>
                    </g>
                </g>
            </g>
        </g>
    </g>
</svg>