<?xml version="1.0" encoding="UTF-8"?>
<svg width="16px" height="16px" viewBox="0 0 16 16" version="1.1" xmlns="http://www.w3.org/2000/svg" xmlns:xlink="http://www.w3.org/1999/xlink">
    <!-- Generator: Sketch 61 (89581) - https://sketch.com -->
    <title>shuru_clear@2x</title>
    <desc>Created with Sketch.</desc>
    <g id="1" stroke="none" stroke-width="1" fill="none" fill-rule="evenodd">
        <g id="橙-个人中心-还款页-还本期金额" transform="translate(-308.000000, -311.000000)" fill-rule="nonzero">
            <g id="输入文字激活右删除图标" transform="translate(308.000000, 311.000000)">
                <g id="shuru_clear">
                    <circle id="椭圆形" fill="#999999" cx="8" cy="8" r="8"></circle>
                    <path d="M4.92727638,4.15909547 L8,7.232 L11.0727236,4.15909547 C11.2848509,3.94696818 11.6287772,3.94696818 11.8409045,4.15909547 C12.0530318,4.37122277 12.0530318,4.71514908 11.8409045,4.92727638 L8.768,8 L11.8409045,11.0727236 C12.0530318,11.2848509 12.0530318,11.6287772 11.8409045,11.8409045 C11.6287772,12.0530318 11.2848509,12.0530318 11.0727236,11.8409045 L8,8.768 L4.92727638,11.8409045 C4.71514908,12.0530318 4.37122277,12.0530318 4.15909547,11.8409045 C3.94696818,11.6287772 3.94696818,11.2848509 4.15909547,11.0727236 L7.232,8 L4.15909547,4.92727638 C3.94696818,4.71514908 3.94696818,4.37122277 4.15909547,4.15909547 C4.37122277,3.94696818 4.71514908,3.94696818 4.92727638,4.15909547 Z" id="形状结合" fill="#FFFFFF"></path>
                </g>
            </g>
        </g>
    </g>
</svg>