<?xml version="1.0" encoding="UTF-8"?>
<svg width="121px" height="121px" viewBox="0 0 121 121" version="1.1" xmlns="http://www.w3.org/2000/svg" xmlns:xlink="http://www.w3.org/1999/xlink">
    <!-- Generator: Sketch 61 (89581) - https://sketch.com -->
    <title>Start the_logo@2x</title>
    <desc>Created with Sketch.</desc>
    <defs>
        <filter x="-38.2%" y="-38.2%" width="176.5%" height="176.5%" filterUnits="objectBoundingBox" id="filter-1">
            <feOffset dx="0" dy="10" in="SourceAlpha" result="shadowOffsetOuter1"></feOffset>
            <feGaussianBlur stdDeviation="5" in="shadowOffsetOuter1" result="shadowBlurOuter1"></feGaussianBlur>
            <feColorMatrix values="0 0 0 0 1   0 0 0 0 0.473994755   0 0 0 0 0  0 0 0 0.0999781469 0" type="matrix" in="shadowBlurOuter1" result="shadowMatrixOuter1"></feColorMatrix>
            <feMerge>
                <feMergeNode in="shadowMatrixOuter1"></feMergeNode>
                <feMergeNode in="SourceGraphic"></feMergeNode>
            </feMerge>
        </filter>
        <linearGradient x1="50%" y1="26.0973479%" x2="50%" y2="98.9527652%" id="linearGradient-2">
            <stop stop-color="#FFB300" offset="0%"></stop>
            <stop stop-color="#FF7F02" offset="100%"></stop>
        </linearGradient>
    </defs>
    <g id="1" stroke="none" stroke-width="1" fill="none" fill-rule="evenodd">
        <g id="橙-启动页" transform="translate(-120.000000, -199.000000)" fill-rule="nonzero">
            <g id="Start-the_logo" transform="translate(120.500000, 199.000000)">
                <g transform="translate(9.000000, 0.000000)" id="编组">
                    <g filter="url(#filter-1)">
                        <g transform="translate(0.636364, 0.636364)">
                            <rect id="矩形" fill="#FFFFFF" x="0.363636364" y="0.363636364" width="100" height="100" rx="18.1818182"></rect>
                            <path d="M50.1980816,14.0000573 C53.9343006,14.0000573 57.5979296,14.5671953 61.0947282,15.6697547 C62.6174652,16.1498818 63.57013,17.5921534 63.4941224,19.1155939 C63.4943928,19.1257611 63.4948092,19.1358633 63.495182,19.1459767 L63.4975519,19.2747888 L63.4969427,37.0270573 L74.4758769,37.0271152 C76.3734909,37.0271152 77.911811,38.5654354 77.911811,40.4630494 C77.911811,42.3175358 76.44262,43.8288743 74.6046891,43.8966136 L74.4758769,43.8989835 L63.5099427,43.8980573 L63.5099785,57.7989979 C63.5099785,60.8669674 61.0580483,63.3902457 58.0170725,63.5059483 L57.7988833,63.5100931 L42.5971654,63.5100931 C39.4561489,63.5100931 36.8860702,60.9400143 36.8860702,57.7989979 L36.8860702,57.7989979 L36.8860702,42.5972799 C36.8860702,39.4562634 39.4561489,36.8861847 42.5971654,36.8861847 L42.5971654,36.8861847 L56.6249427,36.8860573 L56.6257659,21.5776247 C54.5352134,21.1104264 52.3838713,20.8719256 50.1980816,20.8719256 C34.0014938,20.8719256 20.871811,34.0016083 20.871811,50.1981961 C20.871811,66.394784 34.0014938,79.5244667 50.1980816,79.5244667 C66.3946694,79.5244667 79.5243522,66.394784 79.5243522,50.1981961 C79.5243522,48.3005821 81.0626723,46.762262 82.9602863,46.762262 C84.8579004,46.762262 86.3962205,48.3005821 86.3962205,50.1981961 C86.3962205,70.190012 70.1898975,86.396335 50.1980816,86.396335 C30.2062657,86.396335 13.9999427,70.190012 13.9999427,50.1981961 C13.9999427,30.2063802 30.2062657,14.0000573 50.1980816,14.0000573 Z M56.6259427,43.8980573 L43.7569427,43.8980573 L43.7579384,56.6382248 L56.6381102,56.6382248 L56.6374706,44.144973 C56.633152,44.0926843 56.6300042,44.0400636 56.6280535,43.9871372 L56.6259427,43.8980573 Z" id="形状结合" fill="url(#linearGradient-2)"></path>
                        </g>
                    </g>
                </g>
            </g>
        </g>
    </g>
</svg>