<?xml version="1.0" encoding="UTF-8"?>
<svg width="32px" height="32px" viewBox="0 0 32 32" version="1.1" xmlns="http://www.w3.org/2000/svg" xmlns:xlink="http://www.w3.org/1999/xlink">
    <!-- Generator: Sketch 61 (89581) - https://sketch.com -->
    <title>Steps_Ing@2x</title>
    <desc>Created with Sketch.</desc>
    <g id="1" stroke="none" stroke-width="1" fill="none" fill-rule="evenodd">
        <g id="橙-主页-放贷-当前状态" transform="translate(-119.000000, -577.000000)" fill="#FFFFFF" fill-rule="nonzero">
            <g id="进度" transform="translate(12.336667, 572.000000)">
                <g id="步骤2" transform="translate(94.663333, 5.000000)">
                    <g id="步骤-进行中" transform="translate(12.000000, 0.000000)">
                        <g id="Steps_Ing">
                            <rect id="矩形" opacity="0" x="0" y="0" width="32" height="32"></rect>
                            <path d="M21.6875,6.25 C22.5849627,6.25 23.3125,6.97753728 23.3125,7.875 L23.3131594,17.6431493 C22.8211202,17.3280299 22.2733746,17.0922716 21.6879814,16.9539334 L21.6875,7.875 L9.5,7.875 L9.5,22.5 L15.2029661,22.5009647 C15.2465711,23.0728005 15.3812428,23.6191706 15.5925093,24.1256031 L9.5,24.125 C8.60253728,24.125 7.875,23.3974627 7.875,22.5 L7.875,7.875 C7.875,6.97753728 8.60253728,6.25 9.5,6.25 L21.6875,6.25 Z" id="形状结合"></path>
                            <g id="编组-2" transform="translate(11.937500, 10.312500)">
                                <path d="M8.9375,8.125 C11.1811568,8.125 13,9.9438432 13,12.1875 C13,14.4311568 11.1811568,16.25 8.9375,16.25 C6.6938432,16.25 4.875,14.4311568 4.875,12.1875 C4.875,9.9438432 6.6938432,8.125 8.9375,8.125 Z M8.53125,9.75 C8.30688432,9.75 8.125,9.93188432 8.125,10.15625 L8.125,10.15625 L8.125,13 L10.96875,13 C11.1931157,13 11.375,12.8181157 11.375,12.59375 C11.375,12.3693843 11.1931157,12.1875 10.96875,12.1875 L10.96875,12.1875 L8.937,12.187 L8.9375,10.15625 C8.9375,9.93188432 8.75561568,9.75 8.53125,9.75 Z" id="形状结合"></path>
                                <rect id="矩形" x="0" y="0" width="7.3125" height="1.625" rx="0.8125"></rect>
                                <rect id="矩形" x="0" y="4.875" width="7.3125" height="1.625" rx="0.8125"></rect>
                            </g>
                        </g>
                    </g>
                </g>
            </g>
        </g>
    </g>
</svg>