<?xml version="1.0" encoding="UTF-8"?>
<svg width="82px" height="77px" viewBox="0 0 82 77" version="1.1" xmlns="http://www.w3.org/2000/svg" xmlns:xlink="http://www.w3.org/1999/xlink">
    <!-- Generator: Sketch 61 (89581) - https://sketch.com -->
    <title>Successful@2x</title>
    <desc>Created with Sketch.</desc>
    <g id="1" stroke="none" stroke-width="1" fill="none" fill-rule="evenodd">
        <g id="橙-主页-已还清" transform="translate(-147.000000, -164.000000)" fill="#47D2D6" fill-rule="nonzero">
            <g id="成功" transform="translate(147.000000, 164.000000)">
                <g id="Successful">
                    <path d="M34,8.54162887 C52.7776953,8.54162887 68,23.7639336 68,42.5416289 C68,61.3193242 52.7776953,76.5416289 34,76.5416289 C15.2223047,76.5416289 0,61.3193242 0,42.5416289 C0,23.7639336 15.2223047,8.54162887 34,8.54162887 Z M51.4522689,29.3247103 L30.7334211,50.094726 L17.5477311,36.8764722 C16.5061948,35.8323637 14.8200248,35.8323637 13.7811523,36.8764722 C12.7396159,37.9205807 12.7396159,39.610915 13.7811522,40.6523532 L28.8501316,55.7585475 C29.8916679,56.802656 31.577838,56.802656 32.6167105,55.7585475 L55.2188478,33.1005912 C56.2603841,32.0564827 56.2603841,30.3661484 55.2188478,29.3247103 C54.1773114,28.2806017 52.4911414,28.2806017 51.4522689,29.3247103 Z M81.0838326,22.1747251 C81.2566254,23.2656955 80.5122953,24.290178 79.4213249,24.4629707 L69.5444415,26.0273153 C68.453471,26.2001081 67.4289886,25.455778 67.2561958,24.3648076 C67.0834031,23.2738372 67.8277332,22.2493547 68.9187036,22.076562 L78.795587,20.5122173 C79.8865574,20.3394246 80.9110399,21.0837547 81.0838326,22.1747251 Z M74.9040785,10.2547313 C75.5376336,11.1595416 75.3177377,12.4066332 74.4129273,13.0401882 L66.2214069,18.7759526 C65.3165965,19.4095076 64.069505,19.1896118 63.4359499,18.2848014 C62.8023949,17.379991 63.0222908,16.1328995 63.9271011,15.4993444 L72.1186216,9.76358007 C73.0234319,9.13002503 74.2705235,9.34992092 74.9040785,10.2547313 Z M64.4489913,0.651136309 C65.4933823,1.01074896 66.0485048,2.14891879 65.6888922,3.19330977 L62.4332106,12.6484955 C62.073598,13.6928865 60.9354281,14.248009 59.8910372,13.8883964 C58.8466462,13.5287837 58.2915237,12.3906139 58.6511363,11.3462229 L61.9068179,1.89103715 C62.2664305,0.846646171 63.4046003,0.291523655 64.4489913,0.651136309 Z" id="形状"></path>
                </g>
            </g>
        </g>
    </g>
</svg>