<?xml version="1.0" encoding="UTF-8"?>
<svg width="101px" height="101px" viewBox="0 0 101 101" version="1.1" xmlns="http://www.w3.org/2000/svg" xmlns:xlink="http://www.w3.org/1999/xlink">
    <!-- Generator: Sketch 61 (89581) - https://sketch.com -->
    <title>Through@2x</title>
    <desc>Created with Sketch.</desc>
    <g id="1" stroke="none" stroke-width="1" fill="none" fill-rule="evenodd">
        <g id="橙-主页-待填信息-审核通过" transform="translate(-130.000000, -150.000000)" fill-rule="nonzero">
            <g id="通过" transform="translate(130.000000, 150.000000)">
                <g id="Through">
                    <g id="In-the-review">
                        <rect id="矩形" fill="#FFFFFF" opacity="0" x="0" y="0" width="101" height="101"></rect>
                        <path d="M50,23 C68.7776953,23 84,38.2223047 84,57 C84,75.7776953 68.7776953,91 50,91 C31.2223047,91 16,75.7776953 16,57 C16,38.2223047 31.2223047,23 50,23 Z M65.549,61.25675 C64.46525,61.25675 63.6025,62.03875 63.3815,63.0545 C61.03125,68.18 55.88025,71.75 49.875,71.75 C43.88675,71.75 38.75275,68.19275 36.394,63.0885 C36.1815,62.07275 35.31875,61.2865 34.235,61.2865 C32.98975,61.2865 31.9825,62.29375 31.9825,63.539 C31.9825,64.168 32.24175,64.729 32.65825,65.14125 C35.74375,71.5545 42.28025,76 49.875,76 C57.474,76 64.019,71.55875 67.1045,65.137 C67.5295,64.729 67.80575,64.15525 67.80575,63.5135 C67.80575,62.26825 66.79425,61.25675 65.549,61.25675 Z M35,46.25 C32.64975,46.25 30.75,48.14975 30.75,50.5 C30.75,52.85025 32.64975,54.75 35,54.75 C37.35025,54.75 39.25,52.85025 39.25,50.5 C39.25,48.14975 37.35025,46.25 35,46.25 Z M64.75,46.25 C62.39975,46.25 60.5,48.14975 60.5,50.5 C60.5,52.85025 62.39975,54.75 64.75,54.75 C67.10025,54.75 69,52.85025 69,50.5 C69,48.14975 67.10025,46.25 64.75,46.25 Z M98.0838326,36.1747251 C98.2566254,37.2656955 97.5122953,38.290178 96.4213249,38.4629707 L86.5444415,40.0273153 C85.453471,40.2001081 84.4289886,39.455778 84.2561958,38.3648076 C84.0834031,37.2738372 84.8277332,36.2493547 85.9187036,36.076562 L95.795587,34.5122173 C96.8865574,34.3394246 97.9110399,35.0837547 98.0838326,36.1747251 Z M91.9040785,24.2547313 C92.5376336,25.1595416 92.3177377,26.4066332 91.4129273,27.0401882 L83.2214069,32.7759526 C82.3165965,33.4095076 81.069505,33.1896118 80.4359499,32.2848014 C79.8023949,31.379991 80.0222908,30.1328995 80.9271011,29.4993444 L89.1186216,23.7635801 C90.0234319,23.130025 91.2705235,23.3499209 91.9040785,24.2547313 Z M81.4489913,14.6511363 C82.4933823,15.010749 83.0485048,16.1489188 82.6888922,17.1933098 L79.4332106,26.6484955 C79.073598,27.6928865 77.9354281,28.248009 76.8910372,27.8883964 C75.8466462,27.5287837 75.2915237,26.3906139 75.6511363,25.3462229 L78.9068179,15.8910372 C79.2664305,14.8466462 80.4046003,14.2915237 81.4489913,14.6511363 Z" id="形状结合" fill="#47D2D6"></path>
                    </g>
                </g>
            </g>
        </g>
    </g>
</svg>