<?xml version="1.0" encoding="UTF-8"?>
<svg width="32px" height="32px" viewBox="0 0 32 32" version="1.1" xmlns="http://www.w3.org/2000/svg" xmlns:xlink="http://www.w3.org/1999/xlink">
    <!-- Generator: Sketch 61 (89581) - https://sketch.com -->
    <title>toast_over right@2x</title>
    <desc>Created with Sketch.</desc>
    <g id="1" stroke="none" stroke-width="1" fill="none" fill-rule="evenodd">
        <g id="橙-主页-待填信息-绑定银行卡-成功tost" transform="translate(-164.000000, -343.000000)" fill-rule="nonzero">
            <g id="正确tost" transform="translate(108.000000, 327.000000)">
                <g id="吐司-toast－完成对勾图标" transform="translate(56.000000, 16.000000)">
                    <g id="toast_over-right">
                        <rect id="矩形" fill="#000000" opacity="0" x="0" y="0" width="32" height="32"></rect>
                        <path d="M12.7865609,20.9885119 L8.4,16.8 L8.4,16.8 C8,16.4 7.8,15.8 8.2,15.4 C8.6,15 9.2,15 9.6,15.4 L14.0093924,19.6525849 C14.3711905,20.0015168 14.3890749,20.5751866 14.0497143,20.9459773 C13.7199459,21.3062874 13.1605267,21.3310463 12.8002166,21.0012779 C12.7956199,20.9970708 12.7910677,20.9928152 12.7865609,20.9885119 Z M12.7440082,19.5658677 L22.2,10.8 L22.2,10.8 C22.6,10.4 23.2,10.4 23.6,10.8 C24,11.2 24,11.8 23.6,12.2 L14.1440082,20.9658677 C13.7386852,21.3416091 13.1088296,21.329686 12.7180173,20.9388738 C12.3457827,20.5666391 12.3457827,19.9631275 12.7180173,19.5908928 C12.7265223,19.5823879 12.7351875,19.5740447 12.7440082,19.5658677 Z M16,32 C7.2,32 0,24.8 0,16 C0,7.2 7.2,0 16,0 C24.8,0 32,7.2 32,16 C32,24.8 24.8,32 16,32 Z M16,2 C8.2,2 2,8.2 2,16 C2,23.8 8.2,30 16,30 C23.8,30 30,23.8 30,16 C30,8.2 23.8,2 16,2 Z" id="形状" fill="#FFFFFF"></path>
                    </g>
                </g>
            </g>
        </g>
    </g>
</svg>