<?xml version="1.0" encoding="UTF-8"?>
<svg width="20px" height="20px" viewBox="0 0 20 20" version="1.1" xmlns="http://www.w3.org/2000/svg" xmlns:xlink="http://www.w3.org/1999/xlink">
    <!-- Generator: Sketch 61 (89581) - https://sketch.com -->
    <title>Transfer_prompt light@2x</title>
    <desc>Created with Sketch.</desc>
    <g id="1" stroke="none" stroke-width="1" fill="none" fill-rule="evenodd">
        <g id="橙-主页-已贷款-单期-转账信息" transform="translate(-30.000000, -515.000000)" fill-rule="nonzero">
            <g id="提示文案" transform="translate(16.000000, 496.000000)">
                <g id="转账-提示灯泡" transform="translate(14.000000, 19.000000)">
                    <g id="Transfer_prompt-light">
                        <rect id="矩形" fill="#000000" opacity="0" x="0" y="0" width="20" height="20"></rect>
                        <path d="M10.0007813,0 C13.766875,0 16.8303125,3.0640625 16.8303125,6.8303125 C16.8303125,8.65234375 16.111875,10.30875 14.945625,11.5346875 C14.92375,11.5745312 14.8984375,11.613125 14.866875,11.6485937 C14.146875,12.4553125 13.304375,14.28375 13.304375,16.7823437 C13.3043618,17.0902853 13.0739413,17.3495084 12.768125,17.385625 L12.768125,17.385625 L12.5778125,17.408125 C12.58,17.42875 12.5840625,17.44875 12.5840625,17.47 C12.5840625,18.8651562 11.4473438,20 10.051875,20 C8.83734375,20 7.8209375,19.1398437 7.57796875,17.996875 L7.57796875,17.996875 L7.47984375,18.0084375 C7.30749806,18.0289134 7.13464983,17.9744645 7.00515625,17.8589063 C6.8753125,17.7439063 6.80109375,17.5782812 6.80109375,17.4051563 C6.80109375,14.7201563 5.63359375,12.2778125 4.89796875,11.3690625 C4.89296875,11.3628125 4.88984375,11.3557813 4.88515625,11.3495313 C3.81890625,10.144375 3.16984375,8.56203125 3.16984375,6.8303125 C3.16984375,3.0640625 6.234375,0 10.0007813,0 Z M11.365,17.5509375 L8.79421875,17.85375 C8.95890625,18.3921875 9.46046875,18.7851562 10.051875,18.7851562 C10.7507813,18.7851562 11.3226563,18.2382812 11.365,17.5509375 L11.365,17.5509375 Z M12.1723438,15.3717187 L7.9015625,15.8429687 C7.94365338,16.1356326 7.97445746,16.429809 7.99390625,16.7248437 L7.99390625,16.7248437 L12.1010938,16.240625 C12.1140587,15.9502061 12.1378252,15.6603702 12.1723438,15.3717187 L12.1723438,15.3717187 Z M7.1678125,13.043125 C7.37008969,13.5659921 7.53820374,14.1014413 7.67109375,14.6460937 L7.67109375,14.6460937 L12.3932813,14.125 C12.4753471,13.7800871 12.575962,13.439853 12.6946875,13.1057812 C11.8439673,13.4725519 10.9271964,13.6613723 10.0007813,13.660625 C9.02301166,13.6611779 8.05665711,13.4505424 7.1678125,13.043125 Z M10.0007813,1.21484375 C6.90421875,1.21484375 4.3846875,3.73375 4.3846875,6.8303125 C4.3846875,9.92703125 6.90421875,12.4457812 10.0007813,12.4457812 C13.0965625,12.4457812 15.6154688,9.92703125 15.6154688,6.8303125 C15.6154688,3.73375 13.0965625,1.21484375 10.0007813,1.21484375 Z M9.86431536,3.11246893 C10.0229418,2.81676827 10.3911878,2.70556009 10.6869716,2.86403143 C10.9823897,3.02295962 11.0935625,3.39092681 10.9355654,3.68684393 L10.9355654,3.68684393 L9.82806536,5.75309393 L11.3372841,7.09325018 C11.5524881,7.28403795 11.6042253,7.5996807 11.4611904,7.84918768 L11.4611904,7.84918768 L9.90759661,10.5626252 C9.8276821,10.702687 9.6952973,10.8051733 9.53968106,10.8474489 C9.38406482,10.8897244 9.2180207,10.8683109 9.07822161,10.7879377 C8.78712786,10.6218439 8.68681536,10.2504377 8.85290911,9.95856268 L8.85290911,9.95856268 L10.1615029,7.67356268 L8.66306536,6.34325018 C8.53320955,6.22793335 8.45893175,6.06254296 8.45900281,5.88887518 C8.45905072,5.78871984 8.48367719,5.69010666 8.53072161,5.60168768 L8.53072161,5.60168768 Z" id="形状结合" fill="#FDA90D"></path>
                    </g>
                </g>
            </g>
        </g>
    </g>
</svg>