<?xml version="1.0" encoding="UTF-8"?>
<svg width="24px" height="24px" viewBox="0 0 24 24" version="1.1" xmlns="http://www.w3.org/2000/svg" xmlns:xlink="http://www.w3.org/1999/xlink">
    <!-- Generator: Sketch 61 (89581) - https://sketch.com -->
    <title>Transfer_copy@2x</title>
    <desc>Created with Sketch.</desc>
    <g id="1" stroke="none" stroke-width="1" fill="none" fill-rule="evenodd">
        <g id="橙-主页-待填信息-绑定银行卡-find-my-ifsc2" transform="translate(-304.000000, -319.000000)" fill-rule="nonzero">
            <g id="转账-复制" transform="translate(304.000000, 319.000000)">
                <g id="Transfer_copy">
                    <rect id="矩形" fill="#000000" opacity="0" x="0" y="0" width="24" height="24"></rect>
                    <path d="M17.2523438,1.49765625 L21.7757813,5.99765625 L21.7757813,16.4953125 C21.7757813,18.1453125 20.4257813,19.4953125 18.7757813,19.4953125 L18.7757813,19.4953125 L17.2523438,19.4953125 C17.2523438,21.1453125 15.9023438,22.4953125 14.2523438,22.4953125 L14.2523438,22.4953125 L5.25,22.4953125 C3.6,22.4953125 2.25,21.1453125 2.25,19.4953125 L2.25,19.4953125 L2.25,16.4882812 C2.25,16.0734375 2.58984375,15.7359375 3.00703125,15.7359375 C3.42421875,15.7359375 3.76171875,16.0734375 3.76171875,16.4882812 L3.76171875,16.4882812 L3.76171875,19.490625 C3.76171875,20.315625 4.43671875,20.990625 5.26171875,20.990625 L5.26171875,20.990625 L14.2523438,20.990625 C15.0773438,20.990625 15.75,20.3203125 15.7523438,19.4953125 L15.7523438,19.4953125 L9.7734375,19.4953125 C8.1234375,19.4953125 6.7734375,18.1453125 6.7734375,16.4953125 L6.7734375,16.4953125 L6.7734375,6 L5.26171875,6 C4.43671875,6 3.76171875,6.675 3.76171875,7.5 L3.76171875,7.5 L3.76171875,10.4953125 C3.76171875,10.9101563 3.42421875,11.2476563 3.00703125,11.2476563 C2.58984375,11.2476563 2.25,10.9125 2.25234375,10.4976563 L2.25234375,10.4976563 L2.25234375,7.49765625 C2.25234375,5.84765625 3.60234375,4.49765625 5.25234375,4.49765625 L5.25234375,4.49765625 L6.7734375,4.49765625 C6.7734375,2.84765625 8.1234375,1.49765625 9.7734375,1.49765625 L9.7734375,1.49765625 L17.2523438,1.49765625 Z M15.7265625,2.98359375 L9.75234375,2.98359375 C8.92734375,2.98359375 8.25234375,3.65859375 8.25234375,4.48359375 L8.25234375,4.48359375 L8.25234375,16.5070312 C8.25234375,17.3320312 8.92734375,18.0070312 9.75234375,18.0070312 L9.75234375,18.0070312 L18.7546875,18.0070312 C19.5796875,18.0070312 20.2546875,17.3320312 20.2546875,16.5070312 L20.2546875,16.5070312 L20.2546875,7.4765625 L18.7265625,7.4765625 C17.0765625,7.4765625 15.7265625,6.1265625 15.7265625,4.4765625 L15.7265625,4.4765625 L15.7265625,2.98359375 Z M11.0765625,13.4906124 L17.3929688,13.5398438 C17.728125,13.5421875 18.0023438,13.8726563 18.0023438,14.2757813 C18.0023438,14.6789063 17.728125,15.0070313 17.3929688,15.0023438 L17.3929688,15.0023438 L11.0765625,14.953125 C10.7414063,14.9507813 10.4671875,14.6203125 10.4671875,14.2171875 C10.4671875,13.8140625 10.7414063,13.4882813 11.0765625,13.4906124 L11.0765625,13.4906124 Z M3.00703125,12.740625 C3.42383365,12.740625 3.76171875,13.0774608 3.76171875,13.4929687 C3.76171875,13.9084767 3.42383365,14.2453125 3.00703125,14.2453125 C2.59022885,14.2453125 2.25234375,13.9084767 2.25234375,13.4929687 C2.25234375,13.0774608 2.59022885,12.740625 3.00703125,12.740625 Z M11.0765625,10.5140499 L17.3929688,10.5632813 C17.728125,10.565625 18.0023438,10.8960938 18.0023438,11.2992188 C18.0023438,11.7023438 17.728125,12.028125 17.3929688,12.0257938 L17.3929688,12.0257938 L11.0765625,11.9765625 C10.7414063,11.9742188 10.4671875,11.64375 10.4671875,11.240625 C10.4671875,10.8375 10.7414063,10.5117188 11.0765625,10.5140499 L11.0765625,10.5140499 Z M17.2546875,2.98359375 L17.25,2.98359375 L17.25,4.490625 C17.25,5.315625 17.925,5.990625 18.75,5.990625 L18.75,5.990625 L20.2476563,5.990625 L17.2546875,2.98359375 Z" id="形状结合" fill="#47D2D6"></path>
                </g>
            </g>
        </g>
    </g>
</svg>