<?xml version="1.0" encoding="UTF-8"?>
<svg width="12px" height="12px" viewBox="0 0 12 12" version="1.1" xmlns="http://www.w3.org/2000/svg" xmlns:xlink="http://www.w3.org/1999/xlink">
    <!-- Generator: Sketch 61 (89581) - https://sketch.com -->
    <title>User_money pop-up_base exclamation mark@2x</title>
    <desc>Created with Sketch.</desc>
    <g id="1" stroke="none" stroke-width="1" fill="none" fill-rule="evenodd">
        <g id="橙-个人中心-还款页-金额详情" transform="translate(-90.000000, -434.000000)" fill-rule="nonzero">
            <g id="编组" transform="translate(90.000000, 431.000000)">
                <g id="个人中心-金额详情弹窗-底部感叹号" transform="translate(0.000000, 3.000000)">
                    <g id="User_money-pop-up_base-exclamation-mark">
                        <rect id="矩形" fill="#000000" opacity="0" x="0" y="0" width="12" height="12"></rect>
                        <path d="M6,0 C2.68628906,0 0,2.68628906 0,6 C0,9.31371094 2.68628906,12 6,12 C9.31371094,12 12,9.31371094 12,6 C12,2.68628906 9.31371094,0 6,0 Z M6.515625,3 L6.515625,6.97842188 C6.515625,7.26319922 6.28476562,7.49404688 6,7.49404688 C5.71523438,7.49404688 5.484375,7.26319922 5.484375,6.97842188 L5.484375,3 C5.484375,2.71523438 5.71523437,2.484375 6,2.484375 C6.28476562,2.484375 6.515625,2.71523438 6.515625,3 Z M6,8.015625 C6.41421094,8.015625 6.75,8.35141406 6.75,8.765625 C6.75,9.17983594 6.41421094,9.515625 6,9.515625 C5.58578906,9.515625 5.25,9.17983594 5.25,8.765625 C5.25,8.35141406 5.58578906,8.015625 6,8.015625 Z" id="形状" fill="#FF7C61"></path>
                    </g>
                </g>
            </g>
        </g>
    </g>
</svg>