<?xml version="1.0" encoding="UTF-8"?>
<svg width="18px" height="18px" viewBox="0 0 18 18" version="1.1" xmlns="http://www.w3.org/2000/svg" xmlns:xlink="http://www.w3.org/1999/xlink">
    <!-- Generator: Sketch 61 (89581) - https://sketch.com -->
    <title>User_huankuan_money question mark@2x</title>
    <desc>Created with Sketch.</desc>
    <g id="1" stroke="none" stroke-width="1" fill="none" fill-rule="evenodd">
        <g id="橙-个人中心-还款页" transform="translate(-243.000000, -150.000000)" fill="#000000" fill-rule="nonzero">
            <g id="个人中心-还款页-金额问号" transform="translate(243.000000, 150.000000)">
                <g id="User_huankuan_money-question-mark">
                    <rect id="矩形" opacity="0" x="0" y="0" width="18" height="18"></rect>
                    <path d="M9,16.46625 C13.1235,16.46625 16.46625,13.1235 16.46625,9 C16.46625,4.87649999 13.1235,1.53374999 9,1.53374999 C4.87650001,1.53374999 1.53374999,4.87650001 1.53374999,9 C1.53374999,13.1235 4.87650001,16.46625 9,16.46625 Z M9,17.59125 C4.25550001,17.59125 0.408749994,13.7445 0.408749994,9 C0.408749994,4.25550001 4.25550001,0.408749994 9,0.408749994 C13.7445,0.408749994 17.59125,4.25550001 17.59125,9 C17.59125,13.7445 13.7445,17.59125 9,17.59125 Z M7.43250001,7.66875001 L7.43250001,7.68074999 C7.42848078,7.88171189 7.31755495,8.06526411 7.14150723,8.1622643 C6.9654595,8.25926449 6.7510357,8.25497601 6.57900721,8.1510143 C6.40697872,8.04705259 6.30348076,7.85921189 6.30750001,7.65824999 C6.30673583,7.6500236 6.30648534,7.64175756 6.30675,7.63349999 C6.30675,6.80249999 6.53999999,6.11849999 7.002,5.57924999 C7.50825,4.99725 8.20575,4.71225001 9.08924999,4.71225001 C9.87525,4.71225001 10.512,4.94025001 10.99725,5.4 C11.46225,5.83799999 11.69325,6.4305 11.69325,7.164 C11.69325,7.69649999 11.52825,8.1855 11.20575,8.61224999 C11.07075,8.78249999 10.77975,9.06599999 10.2525,9.54300001 C9.99749999,9.76575001 9.81749999,9.97350001 9.70500001,10.16325 C9.55725001,10.41825 9.486,10.67775 9.48524999,10.95675 L9.50549999,11.29725 C9.50881382,11.3514112 9.48958359,11.4045318 9.45236743,11.4440207 C9.41515126,11.4835096 9.36326239,11.5058513 9.30900001,11.5057514 L8.5725,11.5057514 C8.52025514,11.5059494 8.47008171,11.4853348 8.43306844,11.4484623 C8.39605517,11.4115898 8.37524963,11.3614952 8.37525001,11.30925 L8.37525001,10.96875 C8.37525001,10.59675 8.45325,10.2495 8.60549999,9.94575001 C8.78999999,9.55050001 9.17174999,9.09300001 9.72525001,8.60999999 C10.0695,8.26499999 10.1775,8.154 10.24875,8.06475001 C10.47375,7.77525001 10.58325,7.488 10.58325,7.18725001 C10.58325,6.73950001 10.4535,6.38625001 10.20675,6.129 C9.94725,5.86949999 9.56775001,5.73975 9.054,5.73975 C8.48025,5.73975 8.06925001,5.92425 7.78649999,6.3 C7.54875,6.59775001 7.43549999,7.03274999 7.43549999,7.63349999 C7.43555381,7.64531598 7.43454981,7.65711306 7.43250001,7.66875001 L7.43250001,7.66875001 Z M9,13.4235 C8.68933983,13.4235 8.4375,13.1716602 8.4375,12.861 C8.4375,12.5503398 8.68933983,12.2985 9,12.2985 C9.31066017,12.2985 9.5625,12.5503398 9.5625,12.861 C9.5625,13.1716602 9.31066017,13.4235 9,13.4235 Z" id="形状"></path>
                </g>
            </g>
        </g>
    </g>
</svg>