<?xml version="1.0" encoding="UTF-8"?>
<svg width="28px" height="28px" viewBox="0 0 28 28" version="1.1" xmlns="http://www.w3.org/2000/svg" xmlns:xlink="http://www.w3.org/1999/xlink">
    <!-- Generator: Sketch 61 (89581) - https://sketch.com -->
    <title>User_setting@2x</title>
    <desc>Created with Sketch.</desc>
    <g id="1" stroke="none" stroke-width="1" fill="none" fill-rule="evenodd">
        <g id="橙-个人中心" transform="translate(-32.000000, -528.000000)" fill-rule="nonzero">
            <g id="part2" transform="translate(16.000000, 181.000000)">
                <g id="Phone-number" transform="translate(0.000000, 334.000000)">
                    <g id="个人中心-设置" transform="translate(16.000000, 13.000000)">
                        <g id="User_setting">
                            <rect id="矩形" fill="#FF8F8F" opacity="0" x="0" y="0" width="28" height="28"></rect>
                            <g id="设置" transform="translate(1.000000, 1.000000)">
                                <rect id="矩形" fill="#000000" opacity="0" x="0" y="0" width="26" height="26"></rect>
                                <path d="M23.9636719,12.0503906 L19.2791016,3.93554688 C18.9490234,3.36171875 18.3320312,3.00625 17.6693359,3.00625 L8.30019531,3.00625 C7.6375,3.00625 7.02050781,3.36171875 6.69042969,3.93554688 L2.00332031,12.0503906 C1.67324219,12.6242188 1.67324219,13.3351563 2.00332031,13.9089844 L6.68789062,22.0238281 C7.01796875,22.5976563 7.63496094,22.953125 8.29765625,22.953125 L17.6667969,22.953125 C18.3294922,22.953125 18.9464844,22.5976563 19.2765625,22.0238281 L23.9611328,13.9089844 C24.29375,13.3351563 24.29375,12.6242188 23.9636719,12.0503906 Z M22.5570312,13.0964844 L17.8724609,21.2113281 C17.8318359,21.2824219 17.753125,21.328125 17.6693359,21.328125 L8.30019531,21.328125 C8.21640625,21.328125 8.13769531,21.2824219 8.09707031,21.2113281 L3.40996094,13.0964844 C3.36933594,13.0253906 3.36933594,12.9339844 3.40996094,12.8628906 L8.09453125,4.74804688 C8.13515625,4.67695312 8.21386719,4.63125 8.29765625,4.63125 L17.6667969,4.63125 C17.7505859,4.63125 17.8292969,4.67695313 17.8699219,4.74804688 L22.5544922,12.8628906 C22.5976562,12.9339844 22.5976562,13.0253906 22.5570312,13.0964844 Z M12.9619141,8.11738281 C10.2679687,8.11738281 8.07675781,10.3085938 8.07675781,13.0025391 C8.07675781,15.6964844 10.2679687,17.8876953 12.9619141,17.8876953 C15.6558594,17.8876953 17.8470703,15.6964844 17.8470703,13.0025391 C17.8470703,10.3085938 15.6558594,8.11738281 12.9619141,8.11738281 Z M12.9619141,16.2652344 C11.1642578,16.2652344 9.70175781,14.8027344 9.70175781,13.0050781 C9.70175781,11.2074219 11.1642578,9.74492188 12.9619141,9.74492188 C14.7595703,9.74492188 16.2220703,11.2074219 16.2220703,13.0050781 C16.2220703,14.8027344 14.7595703,16.2652344 12.9619141,16.2652344 Z" id="形状" fill="#47D2D6"></path>
                            </g>
                        </g>
                    </g>
                </g>
            </g>
        </g>
    </g>
</svg>