<?xml version="1.0" encoding="UTF-8"?>
<svg width="28px" height="28px" viewBox="0 0 28 28" version="1.1" xmlns="http://www.w3.org/2000/svg" xmlns:xlink="http://www.w3.org/1999/xlink">
    <!-- Generator: Sketch 61 (89581) - https://sketch.com -->
    <title>User_message@2x</title>
    <desc>Created with Sketch.</desc>
    <g id="1" stroke="none" stroke-width="1" fill="none" fill-rule="evenodd">
        <g id="橙-个人中心" transform="translate(-32.000000, -194.000000)" fill-rule="nonzero">
            <g id="part2" transform="translate(16.000000, 181.000000)">
                <g id="Relationship">
                    <g id="个人中心-消息" transform="translate(16.000000, 13.000000)">
                        <g id="User_message" transform="translate(2.000000, 2.000000)">
                            <g id="消息">
                                <rect id="矩形" fill="#000000" opacity="0" x="0" y="0" width="24" height="24"></rect>
                                <path d="M20.76,3.54 C21.948,3.54 22.92,4.512 22.92,5.7 L22.92,18.42 C22.92,19.608 21.948,20.58 20.76,20.58 L3.24,20.58 C2.052,20.58 1.08,19.608 1.08,18.42 L1.08,5.7 C1.08,4.512 2.052,3.54 3.24,3.54 L20.76,3.54 Z M20.76,4.98 L3.24,4.98 C2.844,4.98 2.52,5.304 2.52,5.7 L2.52,18.42 C2.52,18.816 2.844,19.14 3.24,19.14 L20.76,19.14 C21.156,19.14 21.48,18.816 21.48,18.42 L21.48,5.7 C21.48,5.304 21.156,4.98 20.76,4.98 Z M6.61538462,8.53333333 L11.2962846,13.1696533 C11.6860204,13.5556774 12.3139796,13.5556774 12.7037154,13.1696533 L17.3846154,8.53333333 C17.6828293,8.2379595 18.1633245,8.2379595 18.4615385,8.53333333 C18.7560903,8.82507994 18.7583644,9.30036877 18.4666178,9.59492063 C18.4649328,9.59662185 18.4632397,9.59831499 18.4615385,9.6 L13.4074309,14.6059732 C12.6279592,15.3780214 11.3720408,15.3780214 10.5925691,14.6059732 L5.53846154,9.6 C5.24390967,9.30825339 5.24163556,8.83296456 5.53338217,8.5384127 C5.53506718,8.53671149 5.53676033,8.53501834 5.53846154,8.53333333 C5.8366755,8.2379595 6.31717065,8.2379595 6.61538462,8.53333333 Z" id="形状结合" fill="#47D2D6"></path>
                            </g>
                        </g>
                    </g>
                </g>
            </g>
        </g>
    </g>
</svg>