<?xml version="1.0" encoding="UTF-8"?>
<svg width="28px" height="28px" viewBox="0 0 28 28" version="1.1" xmlns="http://www.w3.org/2000/svg" xmlns:xlink="http://www.w3.org/1999/xlink">
    <!-- Generator: Sketch 61 (89581) - https://sketch.com -->
    <title>User_FAQ@2x</title>
    <desc>Created with Sketch.</desc>
    <g id="1" stroke="none" stroke-width="1" fill="none" fill-rule="evenodd">
        <g id="橙-个人中心" transform="translate(-32.000000, -366.000000)" fill-rule="nonzero">
            <g id="part2" transform="translate(16.000000, 181.000000)">
                <g id="Name" transform="translate(0.000000, 172.000000)">
                    <g id="个人中心-借贷记录" transform="translate(16.000000, 13.000000)">
                        <g id="User_FAQ">
                            <rect id="矩形" fill="#FF8F8F" opacity="0" x="0" y="0" width="28" height="28"></rect>
                            <g id="问题2" transform="translate(2.000000, 2.000000)" fill="#47D2D6">
                                <rect id="矩形" opacity="0" x="0" y="0" width="24" height="24"></rect>
                                <path d="M12,24 C5.4,24 0,18.6 0,12 C0,5.4 5.4,0 12,0 C18.6,0 24,5.4 24,12 C24,18.6 18.6,24 12,24 Z M12,1.5 C6.225,1.5 1.5,6.225 1.5,12 C1.5,17.775 6.225,22.5 12,22.5 C17.775,22.5 22.5,17.775 22.5,12 C22.5,6.225 17.775,1.5 12,1.5 Z M14.775,7.35 C15.45,7.95 15.75,8.7 15.75,9.675 C15.75,10.5 15.525,11.175 15.15,11.7 C15,11.925 14.55,12.3 13.725,12.975 C13.425,13.275 13.2,13.5 13.05,13.8 C12.9,14.1 12.75,14.475 12.75,14.925 L12.75,15.225 L10.95,15.225 L10.95,14.925 C10.95,14.325 11.025,13.8 11.25,13.35 C11.475,12.9 12.075,12.225 13.125,11.325 L13.425,11.025 C13.725,10.65 13.875,10.275 13.875,9.825 C13.875,9.3 13.725,8.85 13.425,8.475 C13.125,8.175 12.6,7.95 12.075,7.95 C11.325,7.95 10.8,8.175 10.425,8.625 C10.125,9 9.975,9.6 9.975,10.35 L8.25,10.35 C8.25,9.15 8.625,8.175 9.3,7.5 C9.975,6.825 10.95,6.45 12.15,6.45 C13.275,6.45 14.1,6.75 14.775,7.35 Z M12.75,16.425 C12.975,16.65 13.125,16.95 13.125,17.25 C13.125,17.625 12.975,17.85 12.75,18.075 C12.525,18.3 12.225,18.375 11.85,18.375 C11.475,18.375 11.25,18.225 11.025,18 C10.8,17.775 10.65,17.475 10.65,17.175 C10.65,16.8 10.8,16.575 11.025,16.35 C11.25,16.125 11.55,16.05 11.85,16.05 C12.225,16.125 12.525,16.2 12.75,16.425 Z" id="形状"></path>
                            </g>
                        </g>
                    </g>
                </g>
            </g>
        </g>
    </g>
</svg>