<?xml version="1.0" encoding="UTF-8"?>
<svg width="28px" height="28px" viewBox="0 0 28 28" version="1.1" xmlns="http://www.w3.org/2000/svg" xmlns:xlink="http://www.w3.org/1999/xlink">
    <!-- Generator: Sketch 61 (89581) - https://sketch.com -->
    <title>User_money list@2x</title>
    <desc>Created with Sketch.</desc>
    <g id="1" stroke="none" stroke-width="1" fill="none" fill-rule="evenodd">
        <g id="橙-个人中心" transform="translate(-32.000000, -312.000000)" fill-rule="nonzero">
            <g id="part2" transform="translate(16.000000, 181.000000)">
                <g id="Name" transform="translate(0.000000, 118.000000)">
                    <g id="个人中心-借贷记录" transform="translate(16.000000, 13.000000)">
                        <g id="User_money-list">
                            <rect id="矩形" fill="#FF8F8F" opacity="0" x="0" y="0" width="28" height="28"></rect>
                            <g id="结算" transform="translate(2.000000, 2.000000)">
                                <rect id="矩形" fill="#000000" opacity="0" x="0" y="0" width="24" height="24"></rect>
                                <path d="M12.075,24 C5.475,24 0.075,18.6 0.075,12 C0.075,5.4 5.475,0 12.075,0 C16.2,0 20.025,2.1 22.2,5.625 C22.425,6 22.35,6.45 21.975,6.675 C21.6,6.9 21.15,6.825 20.925,6.45 C19.05,3.3 15.675,1.5 12.075,1.5 C6.3,1.5 1.575,6.225 1.575,12 C1.575,17.775 6.3,22.5 12.075,22.5 C15.075,22.5 17.925,21.225 19.875,18.975 C20.175,18.675 20.625,18.675 20.925,18.9 C21.225,19.2 21.225,19.65 21,19.95 C18.75,22.575 15.45,24 12.075,24 Z" id="路径" fill="#47D2D6"></path>
                                <path d="M21.675,7.65 C21.525,7.65 21.45,7.65 21.3,7.575 L17.1,6.225 C16.725,6.075 16.5,5.7 16.65,5.25 C16.8,4.875 17.175,4.65 17.625,4.8 L21.45,6 L22.5,2.175 C22.65,1.8 23.025,1.575 23.4,1.65 C23.775,1.8 24,2.175 23.925,2.55 L22.65,6.825 C22.575,7.125 22.35,7.35 22.125,7.5 C22.05,7.65 21.825,7.65 21.675,7.65 L21.675,7.65 Z M17.25,12 L6.75,12 C6.3,12 6,11.7 6,11.25 C6,10.8 6.3,10.5 6.75,10.5 L17.25,10.5 C17.7,10.5 18,10.8 18,11.25 C18,11.7 17.7,12 17.25,12 Z" id="形状" fill="#47D2D6"></path>
                                <path d="M12,19.5 C11.55,19.5 11.25,19.2 11.25,18.75 L11.25,11.25 C11.25,10.8 11.55,10.5 12,10.5 C12.45,10.5 12.75,10.8 12.75,11.25 L12.75,18.75 C12.75,19.2 12.45,19.5 12,19.5 Z" id="路径" fill="#47D2D6"></path>
                                <path d="M16.5,15.75 L7.5,15.75 C7.05,15.75 6.75,15.45 6.75,15 C6.75,14.55 7.05,14.25 7.5,14.25 L16.5,14.25 C16.95,14.25 17.25,14.55 17.25,15 C17.25,15.45 16.95,15.75 16.5,15.75 Z M11.25,11.25 C11.025,11.25 10.725,11.1 10.575,10.875 L8.325,7.125 C8.175,6.75 8.25,6.3 8.625,6.075 C9,5.85 9.45,6 9.675,6.3 L11.925,10.05 C12.15,10.425 12,10.875 11.7,11.1 C11.55,11.25 11.4,11.25 11.25,11.25 Z" id="形状" fill="#47D2D6"></path>
                                <path d="M12.75,11.25 C12.6,11.25 12.45,11.25 12.375,11.175 C12,10.95 11.925,10.5 12.15,10.125 L14.4,6.375 C14.55,6 15,5.925 15.375,6.075 C15.75,6.3 15.825,6.75 15.675,7.125 L13.425,10.875 C13.275,11.1 12.975,11.25 12.75,11.25 Z" id="路径" fill="#47D2D6"></path>
                            </g>
                        </g>
                    </g>
                </g>
            </g>
        </g>
    </g>
</svg>