<?xml version="1.0" encoding="UTF-8"?>
<svg width="28px" height="28px" viewBox="0 0 28 28" version="1.1" xmlns="http://www.w3.org/2000/svg" xmlns:xlink="http://www.w3.org/1999/xlink">
    <!-- Generator: Sketch 61 (89581) - https://sketch.com -->
    <title>User_abous@2x</title>
    <desc>Created with Sketch.</desc>
    <g id="1" stroke="none" stroke-width="1" fill="none" fill-rule="evenodd">
        <g id="橙-个人中心" transform="translate(-32.000000, -474.000000)" fill-rule="nonzero">
            <g id="part2" transform="translate(16.000000, 181.000000)">
                <g id="Phone-number" transform="translate(0.000000, 280.000000)">
                    <g id="个人中心-公司简介" transform="translate(16.000000, 13.000000)">
                        <g id="User_abous">
                            <rect id="矩形" fill="#FF8F8F" opacity="0" x="0" y="0" width="28" height="28"></rect>
                            <g id="公司查询" transform="translate(2.000000, 2.000000)">
                                <g id="个人中心-公司简介">
                                    <rect id="矩形" fill="#000000" opacity="0" x="0" y="0" width="24" height="24"></rect>
                                    <path d="M20.792,12.156 L13.544,7.972 L13.544,4.036 C13.544,3.148 13.1,2.32 12.368,1.816 C11.636,1.312 10.7,1.216 9.872,1.552 L3.832,4.768 C2.776,5.188 2.092,6.184 2.092,7.312 L2.092,20.952 C2.092,22.44 3.304,23.664 4.804,23.664 L19.22,23.664 C20.708,23.664 21.932,22.452 21.932,20.952 L21.932,14.376 C21.932,13.5 21.512,12.66 20.792,12.156 Z M3.532,20.952 L3.532,7.312 C3.532,6.772 3.856,6.304 4.348,6.1 L10.388,2.884 C10.544,2.824 10.7,2.788 10.856,2.788 C11.096,2.788 11.336,2.86 11.54,3.004 C11.888,3.232 12.08,3.616 12.08,4.024 L12.08,22.212 L9.52,22.212 L9.52,15.744 C9.52,15.348 9.196,15.024 8.8,15.024 C8.404,15.024 8.08,15.348 8.08,15.744 L8.08,22.212 L4.804,22.212 C4.108,22.224 3.532,21.648 3.532,20.952 Z M19.22,22.224 L13.532,22.224 L13.532,9.736 L19.952,13.32 C20.288,13.56 20.492,13.956 20.492,14.376 L20.492,20.952 C20.492,21.648 19.928,22.224 19.22,22.224 Z" id="形状" fill="#47D2D6"></path>
                                </g>
                            </g>
                        </g>
                    </g>
                </g>
            </g>
        </g>
    </g>
</svg>