<?xml version="1.0" encoding="UTF-8"?>
<svg width="12px" height="12px" viewBox="0 0 12 12" version="1.1" xmlns="http://www.w3.org/2000/svg" xmlns:xlink="http://www.w3.org/1999/xlink">
    <!-- Generator: Sketch 61 (89581) - https://sketch.com -->
    <title>User_huankuanduoqi_penalty_wenhao@2x</title>
    <desc>Created with Sketch.</desc>
    <g id="1" stroke="none" stroke-width="1" fill="none" fill-rule="evenodd">
        <g id="橙-个人中心-还款页-还多期" transform="translate(-236.000000, -284.000000)" fill="#000000" fill-rule="nonzero">
            <g id="个人中心-还款多期-penalty问号" transform="translate(236.000000, 284.000000)">
                <g id="User_huankuanduoqi_penalty_wenhao">
                    <rect id="矩形" opacity="0" x="0" y="0" width="12" height="12"></rect>
                    <path d="M6,1.49882812 C6.60820312,1.49882812 7.19765625,1.6171875 7.75195313,1.85273437 C8.2875,2.07890625 8.76914063,2.40351562 9.1828125,2.8171875 C9.59648438,3.23085937 9.92109375,3.7125 10.1472656,4.24804688 C10.3816406,4.80234375 10.5011719,5.39179688 10.5011719,6 C10.5011719,6.60820312 10.3828125,7.19765625 10.1472656,7.75195313 C9.92109375,8.2875 9.59648438,8.76914063 9.1828125,9.1828125 C8.76914063,9.59648438 8.2875,9.92109375 7.75195313,10.1472656 C7.19765625,10.3816406 6.60820312,10.5011719 6,10.5011719 C5.39179688,10.5011719 4.80234375,10.3828125 4.24804688,10.1472656 C3.7125,9.92109375 3.23085937,9.59648438 2.8171875,9.1828125 C2.40351562,8.76914063 2.07890625,8.2875 1.85273437,7.75195313 C1.61835937,7.19765625 1.49882812,6.60820312 1.49882812,6 C1.49882812,5.39179688 1.6171875,4.80234375 1.85273437,4.24804688 C2.07890625,3.7125 2.40351562,3.23085937 2.8171875,2.8171875 C3.23085938,2.40351562 3.7125,2.07890625 4.24804688,1.85273438 C4.80234375,1.61835937 5.39179688,1.49882812 6,1.49882812 M6,0.748828125 C3.09960937,0.748828125 0.748828125,3.09960937 0.748828125,6 C0.748828125,8.90039062 3.09960937,11.2511719 6,11.2511719 C8.90039062,11.2511719 11.2511719,8.90039062 11.2511719,6 C11.2511719,3.09960937 8.90039062,0.748828125 6,0.748828125 Z" id="形状"></path>
                    <path d="M5.625,8.625 L6.375,8.625 L6.375,9.375 L5.625,9.375 L5.625,8.625 Z M5.58867188,8.04257812 C5.58515625,7.93359375 5.58398438,7.54804687 5.58398438,7.49414062 C5.58398438,7.17421875 5.6296875,6.89882813 5.71992188,6.66679687 C5.78671875,6.4921875 5.89335938,6.31523438 6.04101563,6.13828125 C6.15,6.00820312 6.34453125,5.81953125 6.62695313,5.57109375 C6.90820313,5.32265625 7.0921875,5.12460937 7.1765625,4.97695312 C7.2609375,4.82929688 7.303125,4.66757813 7.303125,4.49296875 C7.303125,4.1765625 7.18007813,3.89882812 6.9328125,3.65859375 C6.68554688,3.41953125 6.38320313,3.29882812 6.02460937,3.29882812 C5.67773438,3.29882812 5.38828125,3.4078125 5.15625,3.62460938 C4.92421875,3.84140625 4.771875,4.18007812 4.69921875,4.64179688 L3.8625,4.5421875 C3.9375,3.92460938 4.16132812,3.45117188 4.53398438,3.12304688 C4.90664062,2.79492188 5.39765625,2.63085938 6.009375,2.63085938 C6.65742187,2.63085938 7.17421875,2.80664062 7.55976562,3.159375 C7.9453125,3.51210938 8.13867188,3.93867188 8.13867188,4.4390625 C8.13867188,4.72851562 8.07070313,4.99453125 7.93476562,5.23945313 C7.79882812,5.484375 7.53398437,5.78085938 7.1390625,6.13007813 C6.87421875,6.365625 6.70078125,6.53789063 6.61875,6.65039062 C6.53789063,6.76171875 6.47695312,6.88945312 6.43828125,7.03476562 C6.39960938,7.17890625 6.37617188,7.71914062 6.3703125,8.04492188 L5.58867188,8.04492188 L5.58867188,8.04257812 Z" id="形状"></path>
                </g>
            </g>
        </g>
    </g>
</svg>