<?xml version="1.0" encoding="UTF-8"?>
<svg width="28px" height="28px" viewBox="0 0 28 28" version="1.1" xmlns="http://www.w3.org/2000/svg" xmlns:xlink="http://www.w3.org/1999/xlink">
    <!-- Generator: Sketch 61 (89581) - https://sketch.com -->
    <title>User_service@2x</title>
    <desc>Created with Sketch.</desc>
    <g id="1" stroke="none" stroke-width="1" fill="none" fill-rule="evenodd">
        <g id="橙-个人中心" transform="translate(-32.000000, -420.000000)" fill-rule="nonzero">
            <g id="part2" transform="translate(16.000000, 181.000000)">
                <g id="Phone-number" transform="translate(0.000000, 226.000000)">
                    <g id="个人中心-客服" transform="translate(16.000000, 13.000000)">
                        <g id="User_service">
                            <rect id="矩形" fill="#FF8F8F" opacity="0" x="0" y="0" width="28" height="28"></rect>
                            <g id="客服" transform="translate(2.000000, 2.000000)">
                                <rect id="矩形" fill="#000000" opacity="0" x="0" y="0" width="24" height="24"></rect>
                                <path d="M21.741,10.9125 C21.6405,5.54775 17.48175,1.21425 12.375,1.21425 L11.625,1.21425 C6.51825,1.21425 2.3595,5.54775 2.259,10.91175 C1.362,11.4315 0.75,12.39075 0.75,13.5 L0.75,15 C0.75,16.6545 2.0955,18 3.75,18 C5.4045,18 6.75,16.6545 6.75,15 L6.75,13.5 C6.74761692,11.8557167 5.42270289,10.5194329 3.7785,10.503 C4.07175,6.15675 7.4745,2.71425 11.625,2.71425 L12.375,2.71425 C16.52625,2.71425 19.92825,6.15675 20.2215,10.503 C18.5772971,10.5194329 17.2523831,11.8557167 17.25,13.5 L17.25,15 C17.25,16.3545 18.1575,17.4885 19.392,17.85975 C18.2778659,19.3262893 16.686917,20.3580985 14.8935,20.77725 C14.6395858,20.0157989 13.927669,19.5016368 13.125,19.5 C12.0894661,19.5 11.25,20.3394661 11.25,21.375 C11.25,22.4105339 12.0894661,23.25 13.125,23.25 C13.7745051,23.2491359 14.3769121,22.9108678 14.71575,22.35675 C17.4515349,21.8781374 19.8373216,20.2181018 21.237,17.81925 C22.4055,17.40975 23.25,16.30725 23.25,15 L23.25,13.5 C23.25,12.39075 22.638,11.4315 21.741,10.9125 Z M5.25,13.5 L5.25,15 C5.25,15.82725 4.57725,16.5 3.75,16.5 C2.92275,16.5 2.25,15.82725 2.25,15 L2.25,13.5 C2.25,12.67275 2.92275,12 3.75,12 C4.57725,12 5.25,12.67275 5.25,13.5 Z M21.75,15 C21.75,15.804 21.1125,16.45725 20.3175,16.49325 L20.259,16.4655 C20.25375,16.4775 20.2455,16.48725 20.24025,16.4985 C19.4162177,16.4931441 18.7508066,15.8240493 18.75,15 L18.75,13.5 C18.75,12.67275 19.42275,12 20.25,12 C21.07725,12 21.75,12.67275 21.75,13.5 L21.75,15 Z" id="形状" fill="#47D2D6"></path>
                            </g>
                        </g>
                    </g>
                </g>
            </g>
        </g>
    </g>
</svg>