<?xml version="1.0" encoding="UTF-8"?>
<svg width="101px" height="101px" viewBox="0 0 101 101" version="1.1" xmlns="http://www.w3.org/2000/svg" xmlns:xlink="http://www.w3.org/1999/xlink">
    <!-- Generator: Sketch 61 (89581) - https://sketch.com -->
    <title>审核中</title>
    <desc>Created with Sketch.</desc>
    <g id="1" stroke="none" stroke-width="1" fill="none" fill-rule="evenodd">
        <g id="橙-主页-待填信息-审核信息" transform="translate(-130.000000, -150.000000)" fill="#47D2D6" fill-rule="nonzero">
            <g id="审核中" transform="translate(130.000000, 150.000000)">
                <g id="In-the-review">
                    <path d="M50,23 C68.7776953,23 84,38.2223047 84,57 C84,75.7776953 68.7776953,91 50,91 C31.2223047,91 16,75.7776953 16,57 C16,38.2223047 31.2223047,23 50,23 Z M50,35.0195313 C48.3863281,35.0195313 47.078125,36.3277344 47.078125,37.9414063 L47.078125,60.9455938 L58.1798555,69.4359648 C59.4616953,70.4162539 61.2955039,70.1718125 62.275793,68.8900391 C63.256082,67.6081992 63.0116406,65.7743906 61.7298672,64.7941016 L52.921875,58.0579844 L52.921875,37.9414063 C52.921875,36.3277344 51.6136719,35.0195313 50,35.0195313 Z M98.0838326,36.1747251 C98.2566254,37.2656955 97.5122953,38.290178 96.4213249,38.4629707 L86.5444415,40.0273153 C85.453471,40.2001081 84.4289886,39.455778 84.2561958,38.3648076 C84.0834031,37.2738372 84.8277332,36.2493547 85.9187036,36.076562 L95.795587,34.5122173 C96.8865574,34.3394246 97.9110399,35.0837547 98.0838326,36.1747251 Z M91.9040785,24.2547313 C92.5376336,25.1595416 92.3177377,26.4066332 91.4129273,27.0401882 L83.2214069,32.7759526 C82.3165965,33.4095076 81.069505,33.1896118 80.4359499,32.2848014 C79.8023949,31.379991 80.0222908,30.1328995 80.9271011,29.4993444 L89.1186216,23.7635801 C90.0234319,23.130025 91.2705235,23.3499209 91.9040785,24.2547313 Z M81.4489913,14.6511363 C82.4933823,15.010749 83.0485048,16.1489188 82.6888922,17.1933098 L79.4332106,26.6484955 C79.073598,27.6928865 77.9354281,28.248009 76.8910372,27.8883964 C75.8466462,27.5287837 75.2915237,26.3906139 75.6511363,25.3462229 L78.9068179,15.8910372 C79.2664305,14.8466462 80.4046003,14.2915237 81.4489913,14.6511363 Z" id="形状结合"></path>
                </g>
            </g>
        </g>
    </g>
</svg>